<svg width="454" height="470" viewBox="0 0 454 470" fill="none" xmlns="http://www.w3.org/2000/svg">
<g style="mix-blend-mode:multiply" clip-path="url(#clip0_986_44610)">
<path d="M296.97 85.161C300.774 81.3627 325.135 77.5108 324.33 61.7598C323.526 46.0088 253.269 0.767578 229.1 0.767578C204.932 0.767578 129.911 60.8531 133.441 73.8842C136.971 86.9152 161.477 85.22 161.477 85.22C161.477 85.22 214.159 65.3971 233.982 66.4861C253.805 67.5752 296.97 85.161 296.97 85.161Z" fill="#EC8503"/>
<path d="M158.75 86.0618C151.894 86.0618 135.628 84.8977 132.704 74.0876C132.033 71.6091 133.621 67.902 137.559 62.7519C154.254 40.9386 208.637 0 229.103 0C242.607 0 268.132 13.31 285.884 24.7102C303.636 36.1103 324.623 52.6822 325.09 61.7272C325.712 73.7282 312.665 79.0179 304.033 82.5211C301.034 83.7335 298.443 84.785 297.515 85.7131C297.408 85.8195 297.272 85.892 297.124 85.9216C296.977 85.9512 296.823 85.9365 296.684 85.8794C296.254 85.7024 253.417 68.3259 233.948 67.2583C214.479 66.1907 162.269 85.756 161.759 85.9438C161.689 85.9706 161.615 85.9869 161.539 85.9921C161.48 85.9921 160.45 86.0618 158.75 86.0618ZM229.103 1.53969C209.425 1.53969 154.903 42.6178 138.782 63.6853C134.324 69.5115 133.82 72.3387 134.184 73.6853C136.835 83.4706 152.248 84.5275 158.75 84.5275C160.086 84.5275 161.019 84.4792 161.325 84.4631C164.544 83.2453 211.754 65.6864 232.338 65.6864C232.923 65.6864 233.492 65.6864 234.034 65.7347C252.918 66.7701 291.973 82.3279 296.802 84.2861C298.089 83.2721 300.482 82.3011 303.433 81.1048C311.662 77.7679 324.098 72.725 323.534 61.8184C323.18 54.9622 307.708 40.5792 285.037 26.0192C261.904 11.1427 239.946 1.53969 229.103 1.53969Z" fill="#272727"/>
<path d="M301.502 79.5225L296.674 97.5696C296.674 97.5696 294.276 95.9602 290.236 93.5567C278.433 86.5825 252.564 73.1223 230.649 74.0021C210.091 74.8337 184.614 86.1212 171.1 92.8647C165.247 95.7831 161.637 97.8539 161.637 97.8539L162.205 80.0858C162.205 80.0858 189.614 46.7598 229.469 46.7598C269.324 46.7598 301.502 79.5225 301.502 79.5225Z" fill="#272727"/>
<path d="M433.608 146.866L453.994 139.661L433.157 133.288C430.11 132.59 427.317 131.059 425.09 128.866C422.863 126.673 421.289 123.904 420.545 120.868L413.034 90.1387L406.988 120.637C406.364 123.787 404.854 126.693 402.634 129.014C400.415 131.335 397.58 132.974 394.461 133.738L375.255 141.04L394.193 147.038C397.425 147.679 400.399 149.252 402.747 151.564C405.095 153.876 406.715 156.825 407.406 160.047L413.78 189.811L420.7 159.591C421.417 156.461 423.012 153.601 425.299 151.347C427.585 149.092 430.468 147.538 433.608 146.866ZM52.1825 300.846L62.9121 297.048L51.9304 293.695C50.3247 293.325 48.8531 292.517 47.6795 291.36C46.506 290.204 45.6765 288.744 45.2834 287.144L41.3081 270.921L38.1214 287.015C37.7932 288.675 36.9978 290.207 35.8288 291.43C34.6599 292.653 33.1659 293.517 31.5228 293.92L21.4102 297.772L31.4047 300.964C33.1107 301.301 34.6805 302.13 35.92 303.35C37.1595 304.569 38.0144 306.125 38.379 307.825L41.7319 323.496L45.38 307.568C45.7548 305.915 46.5943 304.404 47.7996 303.213C49.0049 302.022 50.5257 301.201 52.1825 300.846Z" fill="#EC8503"/>
<path d="M428.834 293.62L441.05 289.328L428.571 285.514C426.746 285.096 425.072 284.179 423.737 282.865C422.402 281.551 421.459 279.892 421.013 278.073L416.495 259.655L412.879 277.896C412.505 279.783 411.599 281.524 410.268 282.915C408.938 284.305 407.238 285.287 405.369 285.744L393.883 290.127L405.224 293.722C407.159 294.103 408.939 295.043 410.346 296.426C411.752 297.808 412.722 299.573 413.137 301.501L416.957 319.322L421.104 301.227C421.534 299.355 422.491 297.644 423.86 296.296C425.23 294.949 426.955 294.02 428.834 293.62Z" fill="#272727"/>
<path d="M82.2653 110.75L95.8543 105.949L81.9702 101.705C79.9408 101.238 78.0807 100.216 76.5967 98.7549C75.1127 97.2936 74.0628 95.4496 73.5636 93.4276L68.5422 72.9609L64.5132 93.2827C64.0979 95.3808 63.0922 97.3168 61.6144 98.863C60.1366 100.409 58.2482 101.501 56.171 102.011L43.3867 106.866L56.0047 110.863C58.1571 111.293 60.137 112.343 61.701 113.883C63.265 115.424 64.345 117.387 64.8083 119.533L69.0572 139.382L73.6656 119.248C74.1433 117.161 75.2059 115.253 76.729 113.748C78.2521 112.243 80.1725 111.203 82.2653 110.75Z" fill="#EC8503"/>
<path d="M173.281 393.818H291.966V420.755C291.966 421.546 291.652 422.305 291.093 422.864C290.533 423.423 289.775 423.738 288.983 423.738H176.269C175.478 423.738 174.72 423.423 174.16 422.864C173.601 422.305 173.287 421.546 173.287 420.755V393.818H173.281Z" fill="#272727"/>
<path d="M336.576 248.995C373.105 269.413 438.507 375.33 420.54 402.964C402.574 430.598 310.477 353.233 310.477 353.233L324.752 256.973L336.576 248.995Z" fill="white"/>
<path d="M407.844 409.692C376.857 409.692 312.694 356.098 309.979 353.812C309.879 353.729 309.801 353.621 309.755 353.498C309.709 353.376 309.696 353.244 309.716 353.115L323.992 256.871C324.005 256.763 324.04 256.659 324.097 256.567C324.153 256.474 324.229 256.395 324.319 256.334L336.122 248.351C336.241 248.272 336.379 248.226 336.522 248.22C336.665 248.213 336.806 248.246 336.932 248.314C365.628 264.355 411.83 332.879 422.205 374.74C425.424 387.761 425.086 397.401 421.202 403.377C418.45 407.567 413.97 409.692 407.844 409.692ZM311.278 352.911C316.38 357.144 378.509 408.168 407.844 408.168C413.418 408.168 417.468 406.28 419.888 402.557C423.536 396.95 423.804 387.718 420.692 375.121C410.462 333.759 365.054 266.216 336.605 249.918L325.462 257.429L311.278 352.911Z" fill="#2D2D2D"/>
<path d="M331.81 252.112L324.6 256.973L310.324 353.217C310.324 353.217 362.824 397.305 396.279 407.01C401.547 406.886 405.785 405.143 408.409 401.108C425.216 375.261 369.031 280.857 331.81 252.112Z" fill="#EC8503"/>
<path d="M396.279 407.794C396.206 407.794 396.134 407.783 396.064 407.761C362.84 398.105 310.356 354.258 309.831 353.813C309.73 353.729 309.653 353.621 309.606 353.499C309.559 353.377 309.544 353.245 309.562 353.116L323.838 256.872C323.852 256.763 323.888 256.66 323.946 256.567C324.003 256.474 324.08 256.395 324.171 256.335L331.381 251.464C331.515 251.375 331.673 251.33 331.834 251.335C331.995 251.341 332.15 251.397 332.277 251.496C350.265 265.38 373.881 295.852 391.043 327.316C400.163 343.979 420.082 384.559 409.052 401.527C406.445 405.54 402.153 407.643 396.295 407.783L396.279 407.794ZM311.156 352.912C315.662 356.667 364.841 397.032 396.386 406.248C401.719 406.104 405.447 404.285 407.775 400.701C415.114 389.435 408.36 362.257 389.707 328.068C372.77 297.027 349.562 266.984 331.767 253.063L325.297 257.429L311.156 352.912Z" fill="#272727"/>
<path d="M127.191 248.995C90.6566 269.413 25.26 375.33 43.2266 402.964C61.1933 430.598 153.285 353.233 153.285 353.233L139.009 256.973L127.191 248.995Z" fill="white"/>
<path d="M55.9164 409.692C49.7899 409.692 45.3049 407.546 42.5796 403.378C38.6955 397.401 38.3575 387.761 41.5764 374.74C51.925 332.895 98.1319 264.355 126.812 248.325C126.937 248.256 127.078 248.224 127.22 248.23C127.362 248.237 127.499 248.283 127.617 248.362L139.419 256.345C139.509 256.406 139.584 256.486 139.64 256.578C139.697 256.671 139.733 256.774 139.747 256.882L154.022 353.126C154.043 353.255 154.029 353.387 153.983 353.509C153.937 353.632 153.86 353.74 153.759 353.823C151.061 356.098 86.9088 409.692 55.9164 409.692ZM127.145 249.902C98.7113 266.206 53.2984 333.743 43.0678 375.105C39.9562 387.702 40.2244 396.935 43.8671 402.541C46.292 406.264 50.3424 408.152 55.9164 408.152C85.2296 408.152 147.359 357.144 152.483 352.895L138.319 257.402L127.145 249.902Z" fill="#2D2D2D"/>
<path d="M131.97 252.112L139.159 256.973L153.429 353.228C153.429 353.228 100.935 397.315 67.4798 407.02C62.2116 406.897 57.9734 405.153 55.35 401.119C38.5422 375.261 94.7275 280.857 131.97 252.112Z" fill="#EC8503"/>
<path d="M67.4835 407.793C61.6252 407.654 57.3334 405.551 54.7207 401.538C43.68 384.569 63.6263 343.99 72.7142 327.327C89.8815 295.863 113.487 265.391 131.48 251.506C131.608 251.407 131.764 251.351 131.925 251.345C132.087 251.339 132.247 251.385 132.381 251.474L139.592 256.346C139.682 256.406 139.759 256.485 139.817 256.577C139.874 256.67 139.911 256.774 139.924 256.882L154.2 353.126C154.218 353.256 154.203 353.388 154.156 353.51C154.109 353.632 154.032 353.74 153.932 353.824C153.395 354.269 100.922 398.131 67.6981 407.772C67.6281 407.79 67.5557 407.797 67.4835 407.793ZM131.974 253.062C114.195 267.011 90.9866 297.027 74.0339 328.067C55.3806 362.257 48.6263 389.408 55.9654 400.701C58.2937 404.285 62.0222 406.103 67.3494 406.248C98.8997 397.032 148.079 356.651 152.58 352.912L138.422 257.418L131.974 253.062Z" fill="#272727"/>
<path d="M341.064 90.7666H337.351C337.233 90.7666 337.137 90.8627 337.137 90.9812V147.505C337.137 147.623 337.233 147.719 337.351 147.719H341.064C341.182 147.719 341.278 147.623 341.278 147.505V90.9812C341.278 90.8627 341.182 90.7666 341.064 90.7666Z" fill="#EC8503"/>
<path d="M341.064 80.7559H337.351C337.233 80.7559 337.137 80.8519 337.137 80.9704V87.7301C337.137 87.8486 337.233 87.9447 337.351 87.9447H341.064C341.182 87.9447 341.278 87.8486 341.278 87.7301V80.9704C341.278 80.8519 341.182 80.7559 341.064 80.7559Z" fill="#EC8503"/>
<path d="M350.643 166.759H329.34V136.384H350.643C351.213 136.384 351.758 136.61 352.161 137.012C352.563 137.415 352.789 137.961 352.789 138.53V164.565C352.795 165.14 352.572 165.694 352.17 166.106C351.768 166.517 351.219 166.752 350.643 166.759Z" fill="#272727"/>
<path d="M123.568 90.7666H119.855C119.737 90.7666 119.641 90.8627 119.641 90.9812V147.505C119.641 147.623 119.737 147.719 119.855 147.719H123.568C123.686 147.719 123.782 147.623 123.782 147.505V90.9812C123.782 90.8627 123.686 90.7666 123.568 90.7666Z" fill="#EC8503"/>
<path d="M123.568 80.7559H119.855C119.737 80.7559 119.641 80.8519 119.641 80.9704V87.7301C119.641 87.8486 119.737 87.9447 119.855 87.9447H123.568C123.686 87.9447 123.782 87.8486 123.782 87.7301V80.9704C123.782 80.8519 123.686 80.7559 123.568 80.7559Z" fill="#EC8503"/>
<path d="M110.283 166.759H131.581V136.384H110.283C109.714 136.384 109.168 136.61 108.765 137.012C108.363 137.415 108.137 137.961 108.137 138.53V164.565C108.131 165.14 108.354 165.694 108.756 166.106C109.158 166.517 109.707 166.752 110.283 166.759Z" fill="#272727"/>
<path d="M248.638 211.399H212.742V251.437H248.638V211.399Z" fill="#272727"/>
<path d="M248.638 222.273H212.742V225.723H248.638V222.273Z" fill="#272727"/>
<path d="M248.638 234.526H212.742V237.976H248.638V234.526Z" fill="#272727"/>
<path d="M306.569 90.1279H154.821C140.679 90.1279 129.215 101.592 129.215 115.734V192.923C129.215 207.064 140.679 218.529 154.821 218.529H306.569C320.711 218.529 332.175 207.064 332.175 192.923V115.734C332.175 101.592 320.711 90.1279 306.569 90.1279Z" fill="white"/>
<path d="M295.478 219.302H165.913C155.985 219.29 146.466 215.344 139.443 208.327C132.42 201.309 128.465 191.794 128.445 181.866V126.824C128.458 116.891 132.41 107.369 139.434 100.346C146.458 93.3231 155.98 89.3727 165.913 89.3613H295.478C305.41 89.3727 314.933 93.3231 321.957 100.346C328.981 107.369 332.933 116.891 332.945 126.824V181.866C332.926 191.794 328.971 201.309 321.948 208.327C314.924 215.344 305.406 219.29 295.478 219.302ZM165.913 90.8956C156.38 90.8956 147.237 94.6826 140.497 101.423C133.756 108.164 129.969 117.307 129.969 126.84V181.866C129.969 191.399 133.756 200.542 140.497 207.283C147.237 214.023 156.38 217.81 165.913 217.81H295.478C305.011 217.81 314.153 214.023 320.894 207.283C327.635 200.542 331.422 191.399 331.422 181.866V126.824C331.422 117.291 327.635 108.148 320.894 101.407C314.153 94.6665 305.011 90.8796 295.478 90.8796L165.913 90.8956Z" fill="#2D2D2D"/>
<path d="M291.651 98.7979H172.451C157.728 98.7979 145.793 110.733 145.793 125.455V181.281C145.793 196.004 157.728 207.939 172.451 207.939H291.651C306.373 207.939 318.308 196.004 318.308 181.281V125.455C318.308 110.733 306.373 98.7979 291.651 98.7979Z" fill="#272727"/>
<path d="M238.905 272.032C243.29 272.032 246.845 268.477 246.845 264.092C246.845 259.707 243.29 256.152 238.905 256.152C234.52 256.152 230.965 259.707 230.965 264.092C230.965 268.477 234.52 272.032 238.905 272.032Z" fill="white"/>
<path d="M281.195 134.656H273.711V143.149H281.195V134.656Z" fill="#EC8503"/>
<path d="M288.298 146.829H284.961V143.17H277.477H269.993V146.829H267.461V155.316H269.993V160.149H273.711V168.352H281.2V160.149H284.961V155.316H288.298V146.829Z" fill="#EC8503"/>
<path d="M186.945 138.342H179.461V146.834H186.945V138.342Z" fill="#EC8503"/>
<path d="M194.048 150.509H190.711V146.855H183.227H175.743V150.509H173.211V159.001H175.743V163.835H179.461V172.038H186.95V163.835H190.711V159.001H194.048V150.509Z" fill="#EC8503"/>
<path d="M336.576 248.995C327.317 236.12 256.158 231.908 233.256 230.868C233.294 230.825 233.32 230.776 233.358 230.733L231.749 230.803L230.139 230.733C230.177 230.776 230.204 230.825 230.241 230.868C207.339 231.908 136.18 236.141 126.921 248.995C115.869 264.349 129.378 376.709 179.726 401.891L179.812 401.929C189.174 407.884 207.21 415.593 230.939 415.341H232.548C256.276 415.598 274.313 407.889 283.674 401.929L283.76 401.891C334.119 376.709 347.639 264.349 336.576 248.995Z" fill="white"/>
<path d="M231.76 416.108H229.791C203.503 416.108 185.8 406.645 179.415 402.578C149.662 387.713 135.29 345.175 129.367 321.136C121.723 290.111 120.328 256.871 126.315 248.556C135.478 235.814 201.18 231.436 229.667 230.149C229.818 230.027 230.011 229.969 230.204 229.988L231.813 230.058L233.353 229.988C233.535 229.978 233.715 230.035 233.857 230.149C262.323 231.458 328.052 235.836 337.226 248.572C343.213 256.887 341.818 290.127 334.173 321.146C328.272 345.186 313.878 387.723 284.141 402.594L284.061 402.627C277.736 406.661 260.027 416.124 233.75 416.124C233.337 416.124 232.972 416.124 232.575 416.124H231.76V416.108ZM230.95 414.558H233.729C259.603 414.558 277.001 405.266 283.278 401.269L283.422 401.194C312.612 386.602 326.802 344.531 332.66 320.755C340.992 286.957 341.094 256.576 335.954 249.441C326.872 236.828 255.032 232.622 233.23 231.63C233.098 231.626 232.97 231.587 232.859 231.517L231.786 231.565L230.66 231.517C230.547 231.586 230.417 231.625 230.284 231.63C208.482 232.622 136.642 236.828 127.559 249.441C122.425 256.576 122.522 286.93 130.859 320.755C136.717 344.531 150.902 386.602 180.081 401.189L180.183 401.237C186.513 405.266 203.911 414.558 229.785 414.558H230.95Z" fill="#2D2D2D"/>
<path d="M330.958 327.911L273.978 315.948C273.789 315.912 273.593 315.935 273.416 316.014C273.24 316.092 273.092 316.223 272.991 316.388L248.083 359.52H212.31L186.785 315.776C186.682 315.592 186.52 315.449 186.324 315.371C186.129 315.293 185.913 315.285 185.712 315.347L132.375 331.543C132.552 332.133 132.718 332.723 132.911 333.314L185.572 317.353L210.996 360.931C211.076 361.071 211.192 361.188 211.331 361.269C211.47 361.35 211.629 361.392 211.79 361.393H248.63C248.792 361.393 248.951 361.35 249.091 361.269C249.232 361.188 249.348 361.072 249.429 360.931L274.268 317.911L330.453 329.714C330.609 329.091 330.791 328.501 330.958 327.911Z" fill="#272727"/>
<path d="M299.311 272.032C303.696 272.032 307.251 268.477 307.251 264.092C307.251 259.707 303.696 256.152 299.311 256.152C294.926 256.152 291.371 259.707 291.371 264.092C291.371 268.477 294.926 272.032 299.311 272.032Z" fill="#EC8503"/>
<path d="M268.588 272.032C272.973 272.032 276.528 268.477 276.528 264.092C276.528 259.707 272.973 256.152 268.588 256.152C264.203 256.152 260.648 259.707 260.648 264.092C260.648 268.477 264.203 272.032 268.588 272.032Z" fill="#EC8503"/>
<path d="M230.247 338.599C247.665 338.599 261.786 324.478 261.786 307.059C261.786 289.64 247.665 275.52 230.247 275.52C212.828 275.52 198.707 289.64 198.707 307.059C198.707 324.478 212.828 338.599 230.247 338.599Z" fill="white"/>
<path d="M198.129 307.058C198.129 300.706 200.013 294.496 203.542 289.214C207.071 283.932 212.087 279.815 217.956 277.384C223.825 274.953 230.283 274.317 236.514 275.557C242.744 276.796 248.467 279.855 252.959 284.347C257.451 288.839 260.51 294.562 261.75 300.792C262.989 307.023 262.353 313.481 259.922 319.35C257.491 325.219 253.374 330.235 248.092 333.764C242.81 337.294 236.6 339.177 230.248 339.177C221.732 339.167 213.569 335.78 207.547 329.759C201.526 323.738 198.139 315.574 198.129 307.058ZM199.288 307.058C199.288 313.183 201.104 319.17 204.507 324.262C207.909 329.355 212.746 333.324 218.404 335.667C224.063 338.011 230.289 338.624 236.296 337.429C242.303 336.233 247.821 333.284 252.151 328.952C256.481 324.621 259.43 319.103 260.624 313.096C261.819 307.089 261.205 300.863 258.86 295.205C256.516 289.547 252.546 284.711 247.453 281.309C242.36 277.907 236.372 276.092 230.248 276.093C222.039 276.103 214.169 279.369 208.365 285.174C202.561 290.979 199.296 298.849 199.288 307.058Z" fill="#272727"/>
<path d="M230.776 330.401C243.96 330.401 254.649 319.712 254.649 306.528C254.649 293.343 243.96 282.654 230.776 282.654C217.591 282.654 206.902 293.343 206.902 306.528C206.902 319.712 217.591 330.401 230.776 330.401Z" fill="#EC8503"/>
<path d="M228.54 327.332C228.356 327.313 228.187 327.222 228.07 327.079C227.952 326.936 227.897 326.752 227.915 326.567C227.934 326.383 228.025 326.214 228.168 326.097C228.312 325.979 228.496 325.924 228.68 325.942C230.023 326.079 231.377 326.079 232.72 325.942C232.904 325.922 233.088 325.977 233.233 326.093C233.377 326.209 233.47 326.378 233.489 326.562C233.509 326.746 233.455 326.931 233.339 327.075C233.223 327.22 233.054 327.312 232.87 327.332C232.13 327.409 231.387 327.448 230.643 327.45C229.941 327.446 229.239 327.406 228.54 327.332ZM224.297 326.452C222.918 326.007 221.589 325.419 220.332 324.698C220.19 324.597 220.09 324.447 220.053 324.277C220.016 324.107 220.043 323.928 220.131 323.778C220.218 323.627 220.359 323.514 220.526 323.462C220.692 323.41 220.872 323.422 221.03 323.496C222.201 324.164 223.44 324.703 224.726 325.105C224.883 325.159 225.016 325.266 225.101 325.407C225.187 325.549 225.22 325.716 225.194 325.88C225.168 326.043 225.086 326.192 224.961 326.301C224.836 326.41 224.677 326.471 224.512 326.473C224.445 326.475 224.378 326.468 224.313 326.452H224.297ZM236.223 325.964C236.165 325.788 236.18 325.597 236.263 325.432C236.347 325.267 236.492 325.142 236.668 325.084C237.951 324.664 239.187 324.11 240.354 323.432C240.433 323.379 240.522 323.342 240.616 323.325C240.709 323.307 240.805 323.309 240.898 323.331C240.991 323.352 241.079 323.392 241.155 323.448C241.232 323.505 241.297 323.576 241.345 323.658C241.393 323.741 241.424 323.832 241.435 323.926C241.446 324.021 241.438 324.117 241.411 324.208C241.384 324.3 241.339 324.384 241.278 324.458C241.217 324.531 241.142 324.591 241.056 324.633C239.805 325.364 238.48 325.962 237.103 326.414C237.033 326.436 236.961 326.446 236.888 326.447C236.743 326.443 236.603 326.394 236.487 326.308C236.371 326.222 236.284 326.101 236.239 325.964H236.223ZM216.824 322.16C215.744 321.193 214.769 320.114 213.916 318.941C213.862 318.867 213.823 318.783 213.801 318.694C213.779 318.605 213.775 318.513 213.789 318.422C213.803 318.331 213.835 318.244 213.882 318.166C213.93 318.087 213.992 318.019 214.066 317.965C214.14 317.911 214.224 317.872 214.313 317.85C214.402 317.828 214.495 317.824 214.586 317.838C214.676 317.852 214.763 317.883 214.842 317.931C214.92 317.979 214.988 318.041 215.043 318.115C215.841 319.203 216.751 320.205 217.757 321.103C217.894 321.228 217.977 321.401 217.987 321.586C217.997 321.771 217.934 321.952 217.811 322.09C217.744 322.166 217.661 322.227 217.569 322.268C217.476 322.308 217.376 322.328 217.274 322.327C217.115 322.323 216.961 322.265 216.84 322.16H216.824ZM243.562 322.031C243.5 321.963 243.453 321.884 243.422 321.797C243.392 321.71 243.379 321.618 243.384 321.527C243.389 321.435 243.412 321.345 243.451 321.262C243.491 321.18 243.547 321.106 243.615 321.044C244.613 320.138 245.512 319.129 246.298 318.035C246.407 317.885 246.571 317.784 246.754 317.755C246.937 317.726 247.124 317.77 247.274 317.879C247.424 317.988 247.525 318.152 247.554 318.335C247.583 318.518 247.539 318.705 247.43 318.855C246.583 320.028 245.614 321.107 244.538 322.074C244.47 322.136 244.391 322.184 244.304 322.215C244.218 322.246 244.126 322.26 244.035 322.255C243.943 322.251 243.853 322.228 243.77 322.189C243.687 322.15 243.613 322.094 243.551 322.026L243.562 322.031ZM211.749 315.213C211.151 313.894 210.698 312.514 210.397 311.098C210.377 311.008 210.375 310.915 210.392 310.825C210.408 310.734 210.442 310.648 210.492 310.571C210.542 310.493 210.606 310.427 210.682 310.374C210.758 310.322 210.843 310.286 210.933 310.267C211.114 310.23 211.303 310.265 211.458 310.365C211.614 310.466 211.724 310.623 211.765 310.803C212.049 312.123 212.473 313.409 213.031 314.639C213.105 314.809 213.11 315.002 213.044 315.175C212.978 315.349 212.846 315.49 212.677 315.567C212.587 315.605 212.49 315.625 212.392 315.626C212.256 315.628 212.123 315.59 212.008 315.516C211.894 315.443 211.804 315.337 211.749 315.213ZM248.696 315.454C248.612 315.417 248.536 315.364 248.473 315.297C248.41 315.231 248.36 315.152 248.327 315.066C248.294 314.981 248.279 314.889 248.281 314.797C248.284 314.706 248.304 314.615 248.342 314.531C248.889 313.298 249.304 312.011 249.581 310.69C249.599 310.6 249.635 310.515 249.686 310.439C249.738 310.362 249.804 310.297 249.881 310.247C249.958 310.197 250.044 310.163 250.135 310.147C250.225 310.131 250.318 310.133 250.407 310.154C250.587 310.194 250.744 310.303 250.845 310.457C250.945 310.612 250.981 310.799 250.944 310.98C250.646 312.398 250.2 313.781 249.613 315.106C249.558 315.228 249.468 315.333 249.355 315.406C249.242 315.479 249.11 315.518 248.975 315.519C248.878 315.516 248.783 315.492 248.696 315.449V315.454ZM209.93 306.71C209.931 305.268 210.081 303.829 210.375 302.418C210.414 302.236 210.523 302.078 210.678 301.977C210.834 301.875 211.023 301.84 211.204 301.879C211.386 301.917 211.544 302.026 211.645 302.181C211.747 302.337 211.782 302.526 211.743 302.708C211.464 304.029 211.324 305.375 211.325 306.726V306.806C211.324 306.896 211.306 306.985 211.27 307.067C211.234 307.149 211.182 307.223 211.117 307.285C211.052 307.346 210.975 307.394 210.891 307.425C210.807 307.457 210.717 307.47 210.627 307.466C210.435 307.456 210.255 307.372 210.124 307.23C209.994 307.089 209.924 306.902 209.93 306.71ZM249.989 306.672C249.988 305.322 249.846 303.975 249.565 302.654C249.545 302.564 249.544 302.471 249.56 302.381C249.576 302.29 249.61 302.204 249.66 302.126C249.71 302.049 249.775 301.983 249.85 301.93C249.926 301.878 250.012 301.841 250.102 301.822C250.282 301.787 250.469 301.823 250.623 301.923C250.777 302.023 250.887 302.18 250.928 302.359C251.229 303.77 251.382 305.208 251.384 306.651C251.384 306.742 251.367 306.833 251.333 306.918C251.298 307.003 251.247 307.08 251.183 307.145C251.119 307.211 251.042 307.263 250.958 307.298C250.874 307.334 250.783 307.353 250.692 307.353C250.51 307.352 250.337 307.28 250.208 307.153C250.078 307.026 250.004 306.853 250 306.672H249.989ZM212.071 299.204C211.987 299.167 211.911 299.114 211.848 299.047C211.784 298.981 211.735 298.902 211.702 298.816C211.669 298.731 211.653 298.639 211.656 298.548C211.658 298.456 211.679 298.365 211.717 298.282C212.297 296.957 213.016 295.698 213.862 294.526C213.915 294.448 213.982 294.382 214.061 294.331C214.14 294.28 214.228 294.245 214.32 294.229C214.412 294.213 214.507 294.215 214.598 294.237C214.69 294.258 214.776 294.297 214.851 294.352C214.927 294.407 214.991 294.477 215.039 294.558C215.087 294.638 215.119 294.728 215.132 294.82C215.144 294.913 215.138 295.008 215.114 295.098C215.089 295.189 215.047 295.273 214.989 295.347C214.195 296.44 213.517 297.612 212.966 298.845C212.911 298.968 212.822 299.073 212.709 299.146C212.595 299.219 212.463 299.258 212.328 299.258C212.24 299.255 212.153 299.237 212.071 299.204ZM248.31 298.818C247.758 297.586 247.078 296.415 246.282 295.326C246.228 295.252 246.188 295.168 246.167 295.079C246.145 294.989 246.141 294.897 246.155 294.806C246.169 294.716 246.2 294.629 246.248 294.55C246.295 294.472 246.358 294.403 246.432 294.349C246.506 294.295 246.59 294.256 246.679 294.234C246.768 294.212 246.861 294.208 246.951 294.222C247.042 294.236 247.129 294.268 247.207 294.315C247.286 294.363 247.354 294.425 247.408 294.499C248.265 295.671 248.995 296.93 249.586 298.255C249.624 298.339 249.645 298.429 249.647 298.521C249.65 298.613 249.634 298.704 249.601 298.79C249.568 298.875 249.519 298.954 249.455 299.02C249.392 299.087 249.316 299.14 249.232 299.177C249.144 299.22 249.046 299.242 248.948 299.242C248.812 299.241 248.679 299.201 248.565 299.125C248.452 299.05 248.363 298.943 248.31 298.818ZM216.738 292.3C216.676 292.232 216.629 292.152 216.598 292.065C216.568 291.979 216.555 291.887 216.56 291.795C216.565 291.703 216.588 291.614 216.627 291.531C216.667 291.448 216.723 291.374 216.792 291.313C217.865 290.341 219.037 289.485 220.289 288.759C220.449 288.682 220.632 288.669 220.801 288.721C220.97 288.773 221.113 288.887 221.202 289.04C221.291 289.193 221.319 289.374 221.28 289.547C221.241 289.72 221.138 289.871 220.992 289.972C219.825 290.65 218.73 291.446 217.725 292.348C217.598 292.466 217.431 292.531 217.258 292.531C217.16 292.53 217.063 292.509 216.974 292.47C216.884 292.43 216.804 292.372 216.738 292.3ZM243.562 292.3C242.557 291.396 241.46 290.599 240.289 289.923C240.129 289.83 240.013 289.677 239.965 289.498C239.918 289.319 239.944 289.128 240.037 288.968C240.13 288.808 240.283 288.692 240.462 288.644C240.642 288.597 240.832 288.623 240.992 288.716C242.245 289.439 243.419 290.292 244.495 291.259C244.632 291.383 244.715 291.557 244.725 291.742C244.735 291.926 244.672 292.108 244.549 292.246C244.482 292.322 244.399 292.382 244.306 292.421C244.214 292.461 244.113 292.48 244.012 292.477C243.849 292.481 243.69 292.428 243.562 292.327V292.3ZM223.777 287.847C223.734 287.674 223.76 287.492 223.848 287.338C223.935 287.183 224.079 287.068 224.249 287.016C225.624 286.567 227.043 286.265 228.481 286.114C228.666 286.094 228.85 286.148 228.995 286.265C229.139 286.381 229.231 286.55 229.251 286.734C229.271 286.918 229.217 287.103 229.101 287.247C228.985 287.392 228.816 287.484 228.632 287.504C227.288 287.646 225.963 287.928 224.678 288.346C224.608 288.367 224.536 288.378 224.463 288.378C224.311 288.379 224.163 288.33 224.041 288.239C223.919 288.148 223.83 288.02 223.787 287.874L223.777 287.847ZM236.598 288.287C235.313 287.873 233.988 287.594 232.645 287.455C232.461 287.434 232.294 287.342 232.177 287.198C232.061 287.055 232.006 286.872 232.022 286.688C232.031 286.597 232.058 286.508 232.101 286.427C232.145 286.346 232.204 286.274 232.275 286.216C232.347 286.158 232.429 286.115 232.517 286.089C232.605 286.063 232.698 286.056 232.789 286.066C234.23 286.211 235.651 286.509 237.028 286.957C237.187 287.007 237.323 287.112 237.411 287.254C237.499 287.396 237.533 287.565 237.507 287.73C237.481 287.895 237.397 288.046 237.269 288.154C237.142 288.262 236.98 288.32 236.813 288.319C236.738 288.329 236.662 288.327 236.588 288.314L236.598 288.287Z" fill="#272727"/>
<path d="M243.894 166.871H237V173.765H243.894V166.871Z" fill="#EC8503"/>
<path d="M237.671 172.757H230.777V179.651H237.671V172.757Z" fill="#EC8503"/>
<path d="M230.862 172.757H223.969V179.651H230.862V172.757Z" fill="#EC8503"/>
<path d="M224.308 166.957H217.414V173.851H224.308V166.957Z" fill="#EC8503"/>
<path d="M292.282 89.4152C290.887 94.1792 280.517 104.694 231.263 106.808C186.8 108.718 175.47 92.5161 172.449 89.3187C185.963 82.5751 210.673 74.8338 231.231 74.0022C253.141 73.1224 280.474 82.4571 292.282 89.4152Z" fill="#272727"/>
<path d="M224.182 107.73C187.777 107.73 176.307 94.8173 172.541 90.563C172.289 90.2787 172.069 90.0266 171.886 89.8388C171.804 89.7511 171.743 89.6452 171.708 89.5297C171.674 89.4142 171.667 89.2922 171.688 89.1736C171.71 89.0582 171.759 88.9496 171.831 88.8565C171.903 88.7634 171.995 88.6883 172.101 88.6371C186.199 81.5985 211.022 74.0341 231.221 73.2348C232.192 73.1972 233.195 73.1758 234.204 73.1758C256.317 73.1758 281.719 82.2959 292.68 88.7336C292.828 88.8202 292.943 88.9539 293.006 89.1134C293.069 89.2729 293.077 89.4489 293.028 89.6135C291.955 93.2508 284.359 105.284 231.301 107.559C228.871 107.682 226.484 107.73 224.182 107.73ZM173.694 89.5598C177.358 93.68 188.485 106.191 224.182 106.191C226.462 106.191 228.828 106.137 231.221 106.035C281.285 103.889 289.879 93.0738 291.338 89.753C280.496 83.5674 255.394 74.7316 234.177 74.7316C233.19 74.7316 232.208 74.7316 231.258 74.7906C211.73 75.5631 187.766 82.7305 173.694 89.5598Z" fill="white"/>
<path d="M166.273 83.5992C166.272 83.1215 166.413 82.6542 166.678 82.2565C166.942 81.8588 167.319 81.5485 167.76 81.365C168.201 81.1814 168.687 81.1329 169.155 81.2254C169.624 81.3179 170.055 81.5474 170.393 81.8849C170.731 82.2223 170.961 82.6524 171.055 83.1209C171.149 83.5893 171.101 84.075 170.918 84.5164C170.736 84.9579 170.427 85.3352 170.029 85.6007C169.632 85.8662 169.165 86.008 168.688 86.008C168.371 86.0087 168.057 85.9469 167.764 85.8262C167.471 85.7054 167.205 85.5281 166.981 85.3044C166.757 85.0806 166.579 84.8148 166.457 84.5222C166.336 84.2296 166.273 83.916 166.273 83.5992ZM291.74 82.3438C291.739 81.8661 291.879 81.3988 292.144 81.0011C292.408 80.6034 292.785 80.2932 293.226 80.1096C293.667 79.9261 294.153 79.8775 294.621 79.97C295.09 80.0626 295.521 80.2921 295.859 80.6295C296.197 80.9669 296.428 81.3971 296.521 81.8655C296.615 82.3339 296.567 82.8196 296.385 83.2611C296.202 83.7025 295.893 84.0799 295.496 84.3454C295.098 84.6109 294.631 84.7526 294.154 84.7526C293.514 84.7526 292.901 84.499 292.449 84.0474C291.996 83.5958 291.741 82.9832 291.74 82.3438ZM246.745 49.6348C245.409 45.6219 251.037 41.7593 251.037 41.7593L244.964 32.725C236.793 36.5876 231.922 30.9492 231.922 30.9492C231.922 30.9492 227.056 36.5608 218.88 32.725L212.797 41.7593C212.797 41.7593 218.441 45.6219 217.089 49.6348C215.737 53.6476 209.041 57.8053 212.797 65.3804C216.552 72.9555 231.627 75.214 231.922 81.067C232.223 75.214 247.341 72.9555 251.053 65.3804C254.766 57.8053 248.081 53.6476 246.745 49.6348Z" fill="#EC8503"/>
<path d="M231.923 81.8401C231.726 81.839 231.537 81.7629 231.394 81.6274C231.252 81.4918 231.166 81.3069 231.155 81.1105C231.032 78.6105 227.25 76.6309 223.248 74.5332C218.956 72.2747 214.069 69.7049 212.105 65.7189C209.267 59.9303 212.105 55.9711 214.348 52.7952C215.175 51.757 215.857 50.6109 216.375 49.3885C217.513 45.9765 212.411 42.4143 212.363 42.4143C212.278 42.3577 212.206 42.2849 212.15 42.2001C212.094 42.1153 212.055 42.0203 212.036 41.9204C212.017 41.8206 212.018 41.718 212.039 41.6186C212.06 41.5192 212.101 41.425 212.159 41.3413L218.248 32.2802C218.35 32.1272 218.503 32.0159 218.681 31.9666C218.858 31.9174 219.047 31.9335 219.213 32.012C220.849 32.8232 222.645 33.2611 224.471 33.2942C225.749 33.2952 227.015 33.0425 228.194 32.5507C229.374 32.059 230.444 31.3379 231.343 30.4294C231.415 30.3454 231.503 30.2779 231.603 30.2316C231.703 30.1853 231.812 30.1613 231.923 30.1611C232.034 30.1605 232.144 30.1842 232.245 30.2305C232.346 30.2768 232.435 30.3447 232.507 30.4294C233.41 31.3307 234.482 32.0449 235.661 32.5309C236.84 33.017 238.104 33.2655 239.38 33.262C241.205 33.2289 243.001 32.791 244.637 31.9798C244.803 31.9013 244.993 31.8852 245.17 31.9344C245.347 31.9837 245.501 32.095 245.603 32.248L251.692 41.3092C251.75 41.3928 251.79 41.487 251.811 41.5864C251.832 41.6858 251.833 41.7884 251.814 41.8883C251.795 41.9881 251.757 42.0831 251.701 42.1679C251.645 42.2527 251.572 42.3255 251.488 42.3821C251.44 42.4197 246.338 45.9658 247.475 49.3563C247.993 50.5788 248.675 51.7248 249.503 52.763C251.767 55.9389 254.583 59.8981 251.745 65.6867C249.782 69.6889 244.905 72.2479 240.603 74.5011C236.601 76.5987 232.818 78.5783 232.695 81.0783C232.692 81.2813 232.61 81.4751 232.465 81.6176C232.32 81.7602 232.126 81.8401 231.923 81.8401ZM213.843 41.6042C215.361 42.8059 219.063 46.2072 217.835 49.8982C217.276 51.2675 216.524 52.55 215.603 53.7072C213.366 56.8456 211.054 60.0966 213.484 65.0644C215.227 68.6159 219.868 71.0461 223.961 73.1921C227.427 75.0054 230.533 76.6362 231.923 78.7714C233.317 76.6255 236.424 75.0161 239.889 73.1921C243.983 71.0461 248.623 68.6159 250.367 65.0644C252.797 60.0966 250.485 56.8456 248.248 53.7072C247.326 52.55 246.575 51.2675 246.016 49.8982C244.787 46.2072 248.489 42.8059 250.007 41.6042L244.685 33.6643C243.013 34.4048 241.208 34.7973 239.38 34.8178C236.634 34.8191 233.982 33.8175 231.923 32.0013C229.867 33.8201 227.216 34.8222 224.471 34.8178C222.644 34.7961 220.841 34.4037 219.17 33.6643L213.843 41.6042Z" fill="#272727"/>
<path d="M231.829 71.3517C228.805 71.3806 225.828 70.6009 223.207 69.0931L223.02 68.9751L224.468 66.7272L224.656 66.8452C226.838 68.0755 229.308 68.7049 231.812 68.6693C234.466 68.6477 237.077 67.9969 239.43 66.7701L239.629 66.6682L240.836 69.0555L240.637 69.1521C237.917 70.5726 234.898 71.3264 231.829 71.3517ZM223.642 68.8356C226.15 70.2111 228.968 70.9238 231.829 70.9064C234.751 70.8857 237.628 70.1879 240.235 68.8678L239.43 67.2583C237.068 68.4559 234.461 69.0894 231.812 69.1092C229.298 69.1293 226.82 68.5129 224.608 67.3174L223.642 68.8356ZM240.637 39.0664L240.836 39.1683L239.629 41.5557L239.43 41.4537C237.077 40.227 234.466 39.5762 231.812 39.5546C229.307 39.5219 226.838 40.1531 224.656 41.384L224.468 41.5074L223.02 39.2595L223.207 39.1361C225.83 37.6313 228.805 36.8517 231.829 36.8776C234.897 36.8995 237.916 37.6497 240.637 39.0664ZM224.608 40.8958C226.821 39.7056 229.299 39.0913 231.812 39.1093C234.46 39.1298 237.067 39.7613 239.43 40.9548L240.235 39.3454C237.629 38.0212 234.751 37.3214 231.829 37.3014C228.968 37.284 226.15 37.9967 223.642 39.3722L224.608 40.8958Z" fill="#272727"/>
<path d="M232.372 43.0036L235.333 49.0068C235.369 49.0784 235.422 49.1402 235.488 49.1869C235.553 49.2336 235.629 49.2639 235.709 49.275L242.329 50.2407C242.42 50.2542 242.506 50.2929 242.577 50.3525C242.648 50.4122 242.701 50.4904 242.73 50.5783C242.759 50.6663 242.763 50.7606 242.741 50.8507C242.72 50.9408 242.673 51.0231 242.608 51.0883L237.817 55.7557C237.759 55.8118 237.716 55.8812 237.69 55.9578C237.665 56.0344 237.659 56.116 237.672 56.1956L238.804 62.7675C238.822 62.8601 238.814 62.9559 238.78 63.0439C238.746 63.1319 238.687 63.2084 238.611 63.2646C238.536 63.3207 238.445 63.3543 238.351 63.3612C238.257 63.3682 238.163 63.3483 238.08 63.3039L232.178 60.1924C232.107 60.1529 232.027 60.1322 231.945 60.1322C231.864 60.1322 231.783 60.1529 231.712 60.1924L225.81 63.3039C225.727 63.3468 225.634 63.3655 225.541 63.3578C225.447 63.3501 225.358 63.3163 225.283 63.2604C225.208 63.2044 225.151 63.1286 225.117 63.0414C225.083 62.9543 225.074 62.8593 225.092 62.7675L226.224 56.1741C226.237 56.0946 226.231 56.013 226.205 55.9364C226.18 55.8597 226.137 55.7904 226.079 55.7342L221.288 51.0669C221.222 51.0016 221.176 50.9193 221.154 50.8293C221.133 50.7392 221.137 50.6449 221.166 50.5569C221.195 50.4689 221.247 50.3907 221.318 50.3311C221.389 50.2714 221.475 50.2327 221.567 50.2192L228.187 49.2536C228.267 49.2424 228.342 49.2122 228.408 49.1655C228.473 49.1188 228.526 49.057 228.563 48.9853L231.524 42.9822C231.57 42.9099 231.633 42.8507 231.709 42.8103C231.784 42.77 231.868 42.7499 231.954 42.7521C232.039 42.7543 232.123 42.7786 232.196 42.8227C232.269 42.8668 232.33 42.9291 232.372 43.0036Z" fill="#EC8503"/>
<path d="M238.316 64.1415C238.11 64.142 237.908 64.0923 237.726 63.9966L231.926 60.9494L226.132 63.9966C225.876 64.1266 225.584 64.167 225.302 64.1116C225.02 64.0562 224.765 63.9081 224.577 63.6908C224.457 63.5502 224.37 63.385 224.322 63.2069C224.274 63.0289 224.266 62.8424 224.298 62.6608L225.403 56.2231L220.714 51.6523C220.549 51.4868 220.433 51.2788 220.378 51.0513C220.324 50.8239 220.334 50.5858 220.407 50.3636C220.479 50.1414 220.612 49.9436 220.791 49.7923C220.969 49.641 221.186 49.542 221.417 49.5064L227.897 48.5675L230.794 42.6663C230.899 42.4548 231.061 42.2768 231.261 42.1523C231.462 42.0279 231.693 41.9619 231.929 41.9619C232.165 41.9619 232.396 42.0279 232.597 42.1523C232.797 42.2768 232.959 42.4548 233.064 42.6663L235.961 48.5675L242.441 49.5064C242.672 49.542 242.889 49.641 243.067 49.7923C243.246 49.9436 243.379 50.1414 243.451 50.3636C243.524 50.5858 243.534 50.8239 243.48 51.0513C243.426 51.2788 243.309 51.4868 243.144 51.6523L238.455 56.2231L239.56 62.6608C239.592 62.8424 239.584 63.0289 239.536 63.2069C239.488 63.385 239.401 63.5502 239.281 63.6908C239.163 63.8314 239.015 63.9444 238.848 64.0222C238.681 64.1 238.5 64.1407 238.316 64.1415ZM231.926 59.3776C232.132 59.3766 232.335 59.4263 232.516 59.5224L237.951 62.3765L236.916 56.3304C236.879 56.1279 236.894 55.9196 236.957 55.724C237.021 55.5284 237.132 55.3516 237.28 55.2091L241.674 50.9173L235.601 50.0321C235.399 50.005 235.207 49.9293 235.041 49.8116C234.874 49.6939 234.739 49.5376 234.646 49.3561L231.926 43.8465L229.212 49.3561C229.122 49.5405 228.989 49.7 228.823 49.8207C228.658 49.9414 228.465 50.0195 228.262 50.0482L222.184 50.9334L226.578 55.2252C226.723 55.3663 226.831 55.5408 226.893 55.7336C226.954 55.9263 226.968 56.1312 226.932 56.3304L225.896 62.3818L231.342 59.5492C231.519 59.4438 231.72 59.3848 231.926 59.3776Z" fill="#272727"/>
<path d="M137.763 234.757L108.128 203.475C107.858 190.896 103.178 178.812 94.9051 169.332C86.6326 159.851 75.2931 153.578 62.8665 151.607C50.4398 149.635 37.7155 152.091 26.9151 158.545C16.1147 165 7.92445 175.043 3.77421 186.92C-0.376037 198.798 -0.222538 211.757 4.2079 223.533C8.63835 235.309 17.0642 245.155 28.0145 251.352C38.9648 257.548 51.7437 259.702 64.1201 257.437C76.4966 255.172 87.6843 248.632 95.7299 238.958L137.763 234.757Z" fill="white"/>
<path d="M54.4596 259.119C43.7533 259.117 33.285 255.959 24.3635 250.04C15.442 244.122 8.46303 235.704 4.29912 225.841C0.135205 215.977 -1.02893 205.105 0.952245 194.584C2.93342 184.062 7.972 174.358 15.4381 166.685C22.9042 159.011 32.4666 153.709 42.9298 151.44C53.393 149.171 64.2929 150.037 74.2667 153.929C84.2406 157.821 92.8459 164.567 99.007 173.323C105.168 182.079 108.611 192.457 108.907 203.159L138.338 234.226C138.438 234.331 138.506 234.461 138.535 234.602C138.565 234.744 138.554 234.89 138.504 235.026C138.454 235.16 138.367 235.278 138.253 235.366C138.139 235.454 138.003 235.509 137.861 235.525L96.1386 239.688C91.0354 245.778 84.6583 250.674 77.4569 254.032C70.2555 257.389 62.4052 259.126 54.4596 259.119ZM54.4596 151.721C45.5469 151.715 36.7769 153.959 28.9628 158.246C21.1488 162.533 14.5439 168.724 9.76064 176.244C4.97737 183.765 2.17064 192.372 1.60076 201.266C1.03088 210.161 2.7163 219.055 6.50072 227.124C10.2851 235.194 16.046 242.177 23.249 247.426C30.452 252.675 38.8639 256.02 47.7046 257.151C56.5453 258.282 65.5285 257.163 73.821 253.896C82.1135 250.629 89.4468 245.321 95.1408 238.465C95.2075 238.386 95.2894 238.321 95.3815 238.274C95.4736 238.227 95.5741 238.199 95.6773 238.191L136.149 234.146L107.598 204.001C107.465 203.864 107.389 203.682 107.383 203.492C107.075 189.658 101.366 176.495 91.478 166.816C81.5898 157.137 68.307 151.712 54.4704 151.7L54.4596 151.721Z" fill="#2D2D2D"/>
<mask id="mask0_986_44610" style="mask-type:luminance" maskUnits="userSpaceOnUse" x="19" y="159" width="68" height="94">
<path d="M54.7383 252.214C73.3272 251.542 87.6492 230.323 86.7274 204.821C85.8057 179.318 69.9892 159.189 51.4003 159.861C32.8114 160.532 18.4894 181.751 19.4112 207.254C20.333 232.757 36.1495 252.886 54.7383 252.214Z" fill="white"/>
</mask>
<g mask="url(#mask0_986_44610)">
<path d="M83.7716 180.504C77.9991 180.681 73.9701 176.448 70.4079 172.725C69.6836 171.963 68.9648 171.212 68.262 170.504C64.3832 166.7 58.2781 164.404 52.6397 164.603H52.3608C49.3833 164.753 45.1934 165.675 42.1677 169.345C42.0757 169.452 41.9633 169.541 41.837 169.605C41.7108 169.668 41.5731 169.707 41.432 169.717C41.2909 169.728 41.1491 169.71 41.0148 169.666C40.8805 169.621 40.7563 169.55 40.6494 169.458C40.4321 169.262 40.2985 168.99 40.2765 168.698C40.2545 168.406 40.3458 168.117 40.5314 167.891C43.3372 164.538 47.393 162.628 52.2696 162.387C55.4681 162.251 58.6614 162.757 61.6614 163.874C64.6614 164.992 67.4073 166.699 69.7373 168.894C70.4776 169.619 71.2126 170.391 71.9529 171.169C75.3649 174.742 78.8896 178.433 83.7286 178.288C84.0111 178.297 84.2797 178.413 84.4796 178.612C84.6795 178.812 84.7958 179.081 84.8047 179.363C84.8136 179.646 84.7144 179.921 84.5275 180.133C84.3405 180.345 84.0798 180.477 83.7984 180.504H83.7716ZM25.3223 219.994C25.0727 219.999 24.8291 219.918 24.6333 219.763C24.4374 219.608 24.3017 219.39 24.2493 219.146C20.3813 202.687 24.2493 184.388 34.2922 171.4C34.4693 171.177 34.7277 171.034 35.0104 171.002C35.2931 170.969 35.577 171.051 35.7997 171.228C36.0235 171.416 36.1663 171.683 36.1982 171.974C36.2302 172.265 36.149 172.557 35.9714 172.789C26.3147 185.262 22.6184 202.832 26.3147 218.642C26.3778 218.919 26.3323 219.21 26.1876 219.454C26.0429 219.699 25.81 219.878 25.5369 219.956C25.4669 219.976 25.3949 219.989 25.3223 219.994ZM31.0358 235.348C30.8673 235.356 30.6993 235.323 30.5467 235.251C30.3942 235.179 30.2618 235.07 30.1613 234.935C27.8012 231.894 26.1366 228.372 25.2847 224.618C25.216 224.336 25.2607 224.038 25.4091 223.788C25.5576 223.539 25.7979 223.357 26.0787 223.283C26.2168 223.253 26.3595 223.25 26.4985 223.276C26.6375 223.301 26.7701 223.354 26.8888 223.43C27.0074 223.507 27.1097 223.607 27.1898 223.723C27.2699 223.839 27.3262 223.97 27.3555 224.109C28.1391 227.542 29.6603 230.764 31.8136 233.551C31.9948 233.78 32.0793 234.071 32.0492 234.361C32.0192 234.652 31.8769 234.919 31.6527 235.106C31.4795 235.253 31.2625 235.338 31.0358 235.348Z" fill="#EC8503"/>
<path d="M48.1589 239.119H47.955C40.396 239.253 34.5002 232.869 32.0055 226.485C29.3231 219.564 29.527 211.775 30.101 205.074C30.7502 197.419 32.1289 187.639 37.0753 179.86C41.4797 172.945 49.9507 166.952 58.9475 169.13C63.6792 170.278 67.6706 173.519 71.1845 176.383L84.9398 187.569C85.1641 187.755 85.3078 188.021 85.3407 188.311C85.3737 188.601 85.2935 188.893 85.1169 189.125C85.0299 189.236 84.9219 189.329 84.7991 189.398C84.6762 189.467 84.5409 189.511 84.4009 189.528C84.2609 189.545 84.1189 189.535 83.9831 189.497C83.8473 189.459 83.7203 189.394 83.6094 189.307L69.8648 178.111C66.5172 175.385 62.7618 172.306 58.47 171.276C51.6675 169.64 43.6042 173.647 38.8832 181.067C34.1622 188.486 32.8639 197.88 32.2362 205.278C31.6997 211.716 31.4691 219.184 33.9959 225.664C36.1418 231.163 41.4046 237.021 47.9121 236.93H48.0784C50.1278 236.855 51.8338 236.093 52.7833 234.827C53.8563 233.389 53.9529 231.405 53.8563 229.999C53.5129 224.988 50.6374 220.734 47.6492 216.228C44.3714 211.319 40.9701 206.249 41.1632 200.133C41.2115 198.567 41.1632 196.995 41.0827 195.423C40.9325 191.78 40.7823 188.02 42.0323 184.452C42.0786 184.317 42.1512 184.194 42.2458 184.087C42.3405 183.981 42.4553 183.895 42.5836 183.833C42.7119 183.772 42.8511 183.737 42.9932 183.73C43.1352 183.723 43.2773 183.744 43.4111 183.792C43.682 183.899 43.9007 184.107 44.0209 184.373C44.141 184.638 44.1532 184.94 44.0548 185.214C42.9443 188.368 43.0838 191.753 43.2287 195.337C43.2984 196.947 43.3574 198.594 43.3091 200.208C43.1482 205.573 46.19 210.149 49.4142 214.967C52.4614 219.522 55.6159 224.232 56.0022 229.843C56.1256 231.635 55.97 234.189 54.4947 236.179C53.1642 237.944 50.8627 239.023 48.1589 239.119Z" fill="#EC8503"/>
<path d="M62.6516 182.971C62.489 182.975 62.3277 182.941 62.18 182.873C62.0322 182.806 61.9018 182.705 61.7986 182.579C60.0926 180.525 58.4456 179.157 56.7557 178.384C54.7761 177.488 52.6194 177.456 51.01 178.309C49.9659 178.875 49.1282 179.758 48.6173 180.831C48.556 180.959 48.4699 181.073 48.3639 181.168C48.2579 181.263 48.1342 181.335 48 181.382C47.8657 181.428 47.7236 181.447 47.5818 181.438C47.4401 181.429 47.3015 181.392 47.1742 181.329C46.9172 181.192 46.7233 180.961 46.6333 180.684C46.5432 180.407 46.564 180.105 46.6913 179.843C47.4013 178.35 48.5681 177.121 50.0229 176.335C52.2331 175.16 55.0121 175.165 57.6248 176.362C59.6097 177.263 61.5089 178.829 63.4294 181.142C63.6147 181.367 63.7058 181.655 63.6838 181.946C63.6619 182.237 63.5284 182.508 63.3114 182.703C63.1284 182.865 62.8956 182.959 62.6516 182.971ZM66.0099 223.143C63.1773 223.244 60.7363 221.367 58.7084 219.5C58.495 219.3 58.3664 219.026 58.3494 218.735C58.3324 218.443 58.4283 218.156 58.6172 217.933C58.7111 217.828 58.8249 217.742 58.9521 217.68C59.0794 217.619 59.2175 217.583 59.3585 217.575C59.4996 217.567 59.6408 217.587 59.7742 217.634C59.9075 217.681 60.0303 217.753 60.1355 217.848C61.9273 219.494 63.8908 221.002 65.9241 220.927H66.026C67.8071 220.809 69.5828 219.35 70.5592 217.204C71.5356 215.058 71.7073 212.434 71.7341 210.187C71.8225 202.244 70.3516 194.361 67.4047 186.984C67.2933 186.714 67.2921 186.411 67.4014 186.14C67.5107 185.869 67.7219 185.652 67.9895 185.535C68.1211 185.481 68.2622 185.454 68.4044 185.455C68.5466 185.456 68.6872 185.486 68.818 185.542C68.9488 185.598 69.0672 185.679 69.1663 185.781C69.2653 185.883 69.3431 186.004 69.3951 186.136C72.4499 193.795 73.9754 201.979 73.8854 210.224C73.8854 212.703 73.6654 215.589 72.5067 218.148C71.1869 221.056 68.7513 222.976 66.1655 223.143H66.0099Z" fill="#EC8503"/>
<path d="M57.2156 215.846C55.4081 215.905 53.6395 215.313 52.2317 214.178C49.2918 211.764 48.1276 207.74 47.5107 204.897C46.822 201.734 46.4269 198.514 46.3304 195.278C46.2553 192.697 46.4216 189.441 48.3422 187.15C48.4346 187.043 48.5473 186.955 48.6737 186.892C48.8002 186.829 48.9379 186.791 49.079 186.781C49.2201 186.771 49.3618 186.789 49.4959 186.834C49.63 186.879 49.7539 186.95 49.8605 187.043C50.0763 187.24 50.2078 187.513 50.2278 187.805C50.2478 188.096 50.1547 188.385 49.9678 188.609C48.5354 190.315 48.4173 193.041 48.4764 195.219C48.5682 198.307 48.9472 201.38 49.6083 204.398C50.1448 206.903 51.1534 210.455 53.5675 212.445C54.1526 212.917 54.8303 213.261 55.5567 213.454C56.2832 213.647 57.0421 213.685 57.7842 213.566C58.2861 213.493 58.7659 213.311 59.1902 213.033C59.6145 212.755 59.9732 212.388 60.2413 211.957C60.7277 210.976 61.0088 209.906 61.0675 208.813C62.021 200.625 60.884 192.328 57.7628 184.699C57.6487 184.43 57.6443 184.127 57.7506 183.856C57.8569 183.584 58.0654 183.365 58.3315 183.245C58.4624 183.19 58.6028 183.163 58.7446 183.163C58.8863 183.163 59.0266 183.192 59.1573 183.247C59.288 183.302 59.4065 183.382 59.506 183.483C59.6055 183.584 59.684 183.703 59.737 183.835C63.0074 191.824 64.1997 200.512 63.2027 209.087C63.1124 210.496 62.7267 211.871 62.0707 213.121C61.6495 213.82 61.0809 214.419 60.4046 214.876C59.7282 215.333 58.9603 215.636 58.1544 215.766C57.8437 215.814 57.53 215.841 57.2156 215.846Z" fill="#EC8503"/>
<path d="M56.6916 205.906C54.6691 205.981 53.5854 203.679 53.2689 201.689C52.3606 196.017 52.2793 190.244 53.0275 184.548C53.0561 184.321 53.1566 184.109 53.3143 183.944C53.4719 183.778 53.6785 183.666 53.9038 183.626C54.1291 183.586 54.3613 183.619 54.5666 183.72C54.7718 183.822 54.9393 183.986 55.0446 184.189C57.7056 189.504 59.2121 195.321 59.4652 201.26C59.5725 203.77 58.7034 205.476 57.1369 205.825C56.99 205.86 56.8413 205.886 56.6916 205.906ZM54.771 188.948C54.5287 193.087 54.7356 197.24 55.388 201.335C55.6026 202.676 56.2249 203.706 56.6112 203.69L56.6487 204.8L56.6809 203.679C57.0994 203.588 57.373 202.606 57.3193 201.378C57.1355 197.125 56.2753 192.929 54.771 188.948ZM48.564 230.632C48.282 230.642 48.0074 230.541 47.7996 230.35C47.5917 230.159 47.4674 229.894 47.4535 229.613C47.2013 225.267 44.8998 221.565 42.4642 217.687C40.8011 215.004 39.0898 212.284 38.0168 209.259C36.1123 203.894 36.4074 197.917 36.6434 192.671C36.6584 192.386 36.7858 192.119 36.9975 191.929C37.2093 191.738 37.4882 191.639 37.7727 191.654C38.0573 191.669 38.3243 191.796 38.5149 192.008C38.7056 192.22 38.8043 192.499 38.7894 192.783C38.5533 197.821 38.2529 203.513 40.0393 208.502C41.0211 211.297 42.6735 213.931 44.2668 216.485C46.7507 220.455 49.3151 224.564 49.5994 229.484C49.6126 229.627 49.5967 229.772 49.5528 229.909C49.5088 230.047 49.4376 230.174 49.3435 230.283C49.2493 230.392 49.1342 230.481 49.0049 230.545C48.8755 230.608 48.7347 230.645 48.5908 230.653L48.564 230.632ZM43.3333 234.001C43.1474 234.007 42.9629 233.967 42.7968 233.883C39.9052 232.349 37.5876 229.323 36.284 225.353C35.1467 221.925 34.8623 218.325 34.5941 214.838C34.5687 214.549 34.6581 214.263 34.8429 214.04C35.0277 213.817 35.293 213.676 35.5812 213.647H35.6295C35.9114 213.637 36.1861 213.738 36.3939 213.929C36.6017 214.12 36.7261 214.385 36.74 214.666C36.9975 218.014 37.2765 221.474 38.3173 224.645C39.4439 228.062 41.3805 230.643 43.7732 231.903C44.0282 232.045 44.2191 232.28 44.3069 232.558C44.3947 232.836 44.3727 233.138 44.2453 233.4C44.161 233.573 44.0319 233.72 43.8715 233.825C43.7111 233.931 43.5252 233.992 43.3333 234.001ZM83.5585 216.737H83.4833C83.1944 216.722 82.9232 216.593 82.7284 216.379C82.5336 216.166 82.4309 215.883 82.4426 215.594C82.5928 210.23 82.7645 204.141 80.5595 198.964C79.4437 196.34 77.7484 194.028 76.1014 191.882C74.3042 189.522 72.4051 187.177 70.4791 184.908C70.289 184.686 70.1922 184.398 70.2092 184.106C70.2262 183.814 70.3556 183.54 70.5703 183.341C70.6765 183.248 70.8001 183.177 70.934 183.131C71.068 183.086 71.2095 183.067 71.3506 183.077C71.4917 183.086 71.6296 183.123 71.7562 183.186C71.8828 183.249 71.9958 183.337 72.0886 183.443C74.0467 185.739 75.9673 188.116 77.7913 190.509C79.5188 192.762 81.3106 195.214 82.5284 198.073C84.9211 203.695 84.7494 210.042 84.5885 215.648C84.5929 215.928 84.4877 216.199 84.2952 216.402C84.1027 216.606 83.8383 216.726 83.5585 216.737ZM51.6434 248.674C46.3269 248.867 41.2411 246.978 37.9095 243.309C37.7141 243.091 37.6096 242.807 37.6176 242.514C37.6256 242.222 37.7454 241.944 37.9524 241.737C38.0553 241.64 38.1765 241.563 38.309 241.513C38.4415 241.463 38.5826 241.439 38.7243 241.444C38.866 241.448 39.0053 241.481 39.1344 241.539C39.2634 241.598 39.3795 241.681 39.476 241.785C44.1756 246.952 51.815 247.306 57.2174 245.353C62.4319 243.491 67.4105 239.575 72.8933 233.014C72.9849 232.907 73.0966 232.819 73.2222 232.755C73.3478 232.691 73.4848 232.652 73.6253 232.641C73.7657 232.631 73.907 232.647 74.041 232.691C74.175 232.735 74.2991 232.804 74.4061 232.896C74.6235 233.092 74.7571 233.364 74.7791 233.655C74.801 233.947 74.7098 234.236 74.5242 234.462C70.9083 238.754 65.2646 244.811 57.9255 247.429C55.9071 248.162 53.7886 248.581 51.6434 248.674ZM76.949 229.951C76.8348 229.954 76.7207 229.94 76.6111 229.908C76.3341 229.821 76.1021 229.629 75.9647 229.373C75.8273 229.118 75.7955 228.818 75.8761 228.54L77.4265 222.944C77.4626 222.807 77.5256 222.678 77.612 222.565C77.6984 222.452 77.8063 222.357 77.9296 222.286C78.0529 222.215 78.1891 222.169 78.3302 222.152C78.4713 222.134 78.6146 222.144 78.7516 222.182C79.0294 222.268 79.2623 222.459 79.3999 222.716C79.5375 222.972 79.5686 223.272 79.4866 223.55L77.9362 229.146C77.8791 229.368 77.7525 229.566 77.5749 229.711C77.3973 229.855 77.178 229.939 76.949 229.951Z" fill="#EC8503"/>
<path d="M56.5374 239.05C56.2966 239.059 56.0598 238.986 55.8652 238.844C55.6705 238.702 55.5294 238.499 55.4645 238.267C55.3779 237.989 55.4035 237.689 55.5359 237.43C55.6683 237.171 55.8969 236.975 56.1726 236.882C62.4552 234.798 67.8036 230.568 71.2799 224.935C74.8617 219.042 76.4459 212.15 75.797 205.284C75.62 203.428 75.2605 201.529 74.9279 199.715C74.665 198.283 74.3914 196.851 74.2037 195.423C74.1618 195.136 74.2345 194.843 74.406 194.608C74.5775 194.374 74.8343 194.216 75.1211 194.168C75.2633 194.149 75.4081 194.158 75.5467 194.195C75.6854 194.233 75.8151 194.298 75.9281 194.386C76.0412 194.475 76.1353 194.585 76.205 194.711C76.2746 194.837 76.3183 194.975 76.3335 195.118C76.5213 196.529 76.7841 197.923 77.0416 199.324C77.3904 201.196 77.7444 203.127 77.9376 205.08C78.6392 212.441 76.9458 219.832 73.1093 226.153C69.3626 232.224 63.5983 236.782 56.8271 239.028C56.7317 239.047 56.6345 239.054 56.5374 239.05Z" fill="#EC8503"/>
<path d="M62.8776 229.698C62.6479 229.705 62.4222 229.637 62.2338 229.505C58.6083 226.935 55.7221 223.457 53.8648 219.42C53.7445 219.151 53.7332 218.847 53.8333 218.571C53.9334 218.294 54.1371 218.068 54.4013 217.939C54.5304 217.879 54.6701 217.845 54.8124 217.84C54.9546 217.834 55.0965 217.857 55.2298 217.907C55.3632 217.957 55.4852 218.033 55.5889 218.131C55.6925 218.228 55.7757 218.345 55.8337 218.475C57.5286 222.156 60.159 225.329 63.4624 227.676C63.7006 227.844 63.8641 228.098 63.9182 228.384C63.9723 228.671 63.9127 228.967 63.7521 229.21C63.657 229.357 63.5277 229.478 63.3753 229.563C63.2229 229.648 63.0521 229.694 62.8776 229.698ZM64.8036 215.991C64.6431 215.996 64.4836 215.965 64.3368 215.9C64.0714 215.778 63.8639 215.558 63.7587 215.285C63.6535 215.013 63.6588 214.71 63.7735 214.441C66.413 208.116 65.5117 200.418 64.7875 194.227C64.4549 191.362 64.1115 188.395 62.9956 185.761C62.8791 185.496 62.8699 185.195 62.9699 184.923C63.0699 184.651 63.2714 184.428 63.5321 184.302C63.6627 184.245 63.8031 184.216 63.9453 184.214C64.0875 184.212 64.2286 184.239 64.3604 184.292C64.4921 184.346 64.612 184.425 64.713 184.525C64.8139 184.625 64.8939 184.744 64.9484 184.876C66.1931 187.816 66.5579 191.083 66.9066 193.969C67.663 200.407 68.6018 208.454 65.7317 215.326C65.6553 215.513 65.5277 215.675 65.3635 215.793C65.1993 215.91 65.0052 215.979 64.8036 215.991Z" fill="#EC8503"/>
</g>
<path d="M331.835 380.073H134.288C130.837 380.078 127.529 381.452 125.092 383.895C122.654 386.337 121.286 389.648 121.289 393.099V434.869C121.286 438.32 122.654 441.631 125.092 444.073C127.529 446.516 130.837 447.891 134.288 447.895H220.022L234.373 469.955L245.897 447.873H331.835C335.286 447.869 338.594 446.494 341.032 444.052C343.469 441.609 344.837 438.298 344.834 434.848V393.099C344.837 389.648 343.469 386.337 341.032 383.895C338.594 381.452 335.286 380.078 331.835 380.073Z" fill="#272727"/>
<path d="M328.887 377.782H130.975C127.52 377.782 124.207 379.155 121.764 381.597C119.322 384.04 117.949 387.353 117.949 390.808V432.578C117.949 436.033 119.322 439.346 121.764 441.789C124.207 444.231 127.52 445.604 130.975 445.604H216.87L231.248 467.68L242.788 445.604H328.887C332.342 445.604 335.655 444.231 338.098 441.789C340.54 439.346 341.913 436.033 341.913 432.578V390.808C341.913 387.353 340.54 384.04 338.098 381.597C335.655 379.155 332.342 377.782 328.887 377.782Z" fill="#EC8503"/>
<path d="M231.25 468.453C231.122 468.453 230.996 468.421 230.883 468.36C230.771 468.299 230.676 468.211 230.606 468.104L216.454 446.35H130.976C127.319 446.347 123.813 444.893 121.227 442.307C118.641 439.721 117.186 436.214 117.184 432.557V390.808C117.186 387.151 118.641 383.645 121.227 381.059C123.813 378.473 127.319 377.018 130.976 377.016H328.889C332.546 377.018 336.052 378.473 338.638 381.059C341.225 383.645 342.679 387.151 342.681 390.808V432.579C342.673 436.232 341.216 439.733 338.631 442.315C336.046 444.896 332.542 446.347 328.889 446.35H243.256L231.931 468.018C231.868 468.137 231.776 468.237 231.663 468.309C231.55 468.381 231.421 468.423 231.287 468.431L231.25 468.453ZM130.976 378.55C127.727 378.554 124.612 379.847 122.315 382.145C120.018 384.444 118.726 387.559 118.723 390.808V432.579C118.726 435.828 120.018 438.943 122.315 441.24C124.613 443.537 127.728 444.829 130.976 444.832H216.872C217 444.833 217.125 444.866 217.237 444.926C217.349 444.987 217.445 445.074 217.516 445.181L231.174 466.162L242.108 445.24C242.174 445.116 242.272 445.012 242.392 444.939C242.512 444.866 242.649 444.827 242.789 444.826H328.889C332.138 444.824 335.254 443.532 337.552 441.235C339.85 438.938 341.143 435.823 341.147 432.573V390.808C341.143 387.559 339.85 384.443 337.552 382.145C335.254 379.847 332.138 378.554 328.889 378.55H130.976Z" fill="#272727"/>
<path d="M194.655 406.425H192.922C192.422 406.425 192.016 406.831 192.016 407.331V416.559C192.016 417.06 192.422 417.466 192.922 417.466H194.655C195.156 417.466 195.562 417.06 195.562 416.559V407.331C195.562 406.831 195.156 406.425 194.655 406.425Z" fill="white"/>
<path d="M222.784 406.425H221.051C220.55 406.425 220.145 406.831 220.145 407.331V416.559C220.145 417.06 220.55 417.466 221.051 417.466H222.784C223.285 417.466 223.691 417.06 223.691 416.559V407.331C223.691 406.831 223.285 406.425 222.784 406.425Z" fill="white"/>
<path d="M200.042 400.314H198.309C197.808 400.314 197.402 400.72 197.402 401.221V422.669C197.402 423.17 197.808 423.576 198.309 423.576H200.042C200.543 423.576 200.948 423.17 200.948 422.669V401.221C200.948 400.72 200.543 400.314 200.042 400.314Z" fill="white"/>
<path d="M205.561 389.929H203.829C203.328 389.929 202.922 390.335 202.922 390.835V433.051C202.922 433.552 203.328 433.957 203.829 433.957H205.561C206.062 433.957 206.468 433.552 206.468 433.051V390.835C206.468 390.335 206.062 389.929 205.561 389.929Z" fill="white"/>
<path d="M211.147 399.129H209.414C208.914 399.129 208.508 399.535 208.508 400.036V423.85C208.508 424.351 208.914 424.756 209.414 424.756H211.147C211.648 424.756 212.054 424.351 212.054 423.85V400.036C212.054 399.535 211.648 399.129 211.147 399.129Z" fill="white"/>
<path d="M217.065 403.533H215.332C214.832 403.533 214.426 403.939 214.426 404.44V419.45C214.426 419.951 214.832 420.357 215.332 420.357H217.065C217.566 420.357 217.972 419.951 217.972 419.45V404.44C217.972 403.939 217.566 403.533 217.065 403.533Z" fill="white"/>
<path d="M228.561 406.425H226.829C226.328 406.425 225.922 406.831 225.922 407.331V416.559C225.922 417.06 226.328 417.466 226.829 417.466H228.561C229.062 417.466 229.468 417.06 229.468 416.559V407.331C229.468 406.831 229.062 406.425 228.561 406.425Z" fill="white"/>
<path d="M256.686 406.425H254.954C254.453 406.425 254.047 406.831 254.047 407.331V416.559C254.047 417.06 254.453 417.466 254.954 417.466H256.686C257.187 417.466 257.593 417.06 257.593 416.559V407.331C257.593 406.831 257.187 406.425 256.686 406.425Z" fill="white"/>
<path d="M233.952 400.314H232.219C231.718 400.314 231.312 400.72 231.312 401.221V422.669C231.312 423.17 231.718 423.576 232.219 423.576H233.952C234.453 423.576 234.859 423.17 234.859 422.669V401.221C234.859 400.72 234.453 400.314 233.952 400.314Z" fill="white"/>
<path d="M239.475 389.929H237.743C237.242 389.929 236.836 390.335 236.836 390.835V433.051C236.836 433.552 237.242 433.957 237.743 433.957H239.475C239.976 433.957 240.382 433.552 240.382 433.051V390.835C240.382 390.335 239.976 389.929 239.475 389.929Z" fill="white"/>
<path d="M245.061 399.129H243.329C242.828 399.129 242.422 399.535 242.422 400.036V423.85C242.422 424.351 242.828 424.756 243.329 424.756H245.061C245.562 424.756 245.968 424.351 245.968 423.85V400.036C245.968 399.535 245.562 399.129 245.061 399.129Z" fill="white"/>
<path d="M250.975 403.533H249.243C248.742 403.533 248.336 403.939 248.336 404.44V419.45C248.336 419.951 248.742 420.357 249.243 420.357H250.975C251.476 420.357 251.882 419.951 251.882 419.45V404.44C251.882 403.939 251.476 403.533 250.975 403.533Z" fill="white"/>
<path d="M262.21 406.425H260.477C259.976 406.425 259.57 406.831 259.57 407.331V416.559C259.57 417.06 259.976 417.466 260.477 417.466H262.21C262.711 417.466 263.116 417.06 263.116 416.559V407.331C263.116 406.831 262.711 406.425 262.21 406.425Z" fill="white"/>
<path d="M290.335 406.425H288.602C288.101 406.425 287.695 406.831 287.695 407.331V416.559C287.695 417.06 288.101 417.466 288.602 417.466H290.335C290.836 417.466 291.241 417.06 291.241 416.559V407.331C291.241 406.831 290.836 406.425 290.335 406.425Z" fill="white"/>
<path d="M267.6 400.314H265.868C265.367 400.314 264.961 400.72 264.961 401.221V422.669C264.961 423.17 265.367 423.576 265.868 423.576H267.6C268.101 423.576 268.507 423.17 268.507 422.669V401.221C268.507 400.72 268.101 400.314 267.6 400.314Z" fill="white"/>
<path d="M273.12 389.929H271.387C270.886 389.929 270.48 390.335 270.48 390.835V433.051C270.48 433.552 270.886 433.957 271.387 433.957H273.12C273.621 433.957 274.027 433.552 274.027 433.051V390.835C274.027 390.335 273.621 389.929 273.12 389.929Z" fill="white"/>
<path d="M278.706 399.129H276.973C276.472 399.129 276.066 399.535 276.066 400.036V423.85C276.066 424.351 276.472 424.756 276.973 424.756H278.706C279.207 424.756 279.613 424.351 279.613 423.85V400.036C279.613 399.535 279.207 399.129 278.706 399.129Z" fill="white"/>
<path d="M284.616 403.533H282.883C282.382 403.533 281.977 403.939 281.977 404.44V419.45C281.977 419.951 282.382 420.357 282.883 420.357H284.616C285.117 420.357 285.523 419.951 285.523 419.45V404.44C285.523 403.939 285.117 403.533 284.616 403.533Z" fill="white"/>
<path d="M296.382 406.425H294.649C294.148 406.425 293.742 406.831 293.742 407.331V416.559C293.742 417.06 294.148 417.466 294.649 417.466H296.382C296.882 417.466 297.288 417.06 297.288 416.559V407.331C297.288 406.831 296.882 406.425 296.382 406.425Z" fill="white"/>
<path d="M324.511 406.425H322.778C322.277 406.425 321.871 406.831 321.871 407.331V416.559C321.871 417.06 322.277 417.466 322.778 417.466H324.511C325.011 417.466 325.417 417.06 325.417 416.559V407.331C325.417 406.831 325.011 406.425 324.511 406.425Z" fill="white"/>
<path d="M301.776 400.314H300.043C299.543 400.314 299.137 400.72 299.137 401.221V422.669C299.137 423.17 299.543 423.576 300.043 423.576H301.776C302.277 423.576 302.683 423.17 302.683 422.669V401.221C302.683 400.72 302.277 400.314 301.776 400.314Z" fill="white"/>
<path d="M307.292 389.929H305.559C305.058 389.929 304.652 390.335 304.652 390.835V433.051C304.652 433.552 305.058 433.957 305.559 433.957H307.292C307.793 433.957 308.198 433.552 308.198 433.051V390.835C308.198 390.335 307.793 389.929 307.292 389.929Z" fill="white"/>
<path d="M312.878 399.129H311.145C310.644 399.129 310.238 399.535 310.238 400.036V423.85C310.238 424.351 310.644 424.756 311.145 424.756H312.878C313.379 424.756 313.784 424.351 313.784 423.85V400.036C313.784 399.535 313.379 399.129 312.878 399.129Z" fill="white"/>
<path d="M318.788 403.533H317.055C316.554 403.533 316.148 403.939 316.148 404.44V419.45C316.148 419.951 316.554 420.357 317.055 420.357H318.788C319.289 420.357 319.695 419.951 319.695 419.45V404.44C319.695 403.939 319.289 403.533 318.788 403.533Z" fill="white"/>
<path d="M177.248 431.43C188.555 420.123 188.555 401.791 177.248 390.484C165.941 379.177 147.609 379.177 136.302 390.484C124.994 401.791 124.994 420.123 136.302 431.43C147.609 442.738 165.941 442.738 177.248 431.43Z" fill="#EC8503"/>
<path d="M147.641 423.104V398.067C147.636 397.388 147.813 396.72 148.152 396.132C148.492 395.545 148.983 395.058 149.574 394.724C150.165 394.39 150.834 394.22 151.513 394.231C152.192 394.242 152.855 394.435 153.435 394.789L172.458 406.205C172.995 406.532 173.443 406.988 173.76 407.531C174.078 408.073 174.257 408.686 174.28 409.315C174.304 409.943 174.171 410.568 173.894 411.133C173.618 411.697 173.205 412.185 172.694 412.551L153.671 426.189C153.102 426.597 152.432 426.84 151.735 426.893C151.037 426.945 150.338 426.804 149.715 426.485C149.092 426.167 148.569 425.682 148.203 425.086C147.837 424.489 147.642 423.804 147.641 423.104Z" fill="white"/>
<path d="M151.463 427.691C150.246 427.691 149.079 427.208 148.218 426.348C147.357 425.488 146.873 424.321 146.871 423.104V398.066C146.868 397.255 147.082 396.457 147.489 395.755C147.897 395.053 148.484 394.473 149.19 394.073C149.896 393.673 150.696 393.468 151.508 393.48C152.32 393.492 153.113 393.719 153.808 394.139L172.831 405.556C173.483 405.946 174.028 406.492 174.416 407.145C174.804 407.798 175.023 408.538 175.054 409.297C175.085 410.056 174.926 410.811 174.593 411.493C174.259 412.176 173.761 412.764 173.142 413.206L154.119 426.838C153.346 427.395 152.416 427.694 151.463 427.691ZM151.463 395.009C150.656 395.01 149.881 395.331 149.31 395.903C148.739 396.474 148.418 397.248 148.416 398.056V423.104C148.418 423.913 148.74 424.689 149.312 425.261C149.884 425.833 150.66 426.155 151.469 426.156C152.102 426.154 152.718 425.951 153.228 425.577L172.252 411.945C172.662 411.651 172.992 411.26 173.213 410.807C173.434 410.353 173.539 409.852 173.518 409.348C173.497 408.845 173.351 408.354 173.094 407.92C172.836 407.487 172.475 407.124 172.043 406.865L153.019 395.448C152.549 395.161 152.009 395.009 151.458 395.009H151.463Z" fill="#2D2D2D"/>
<path d="M384.657 226.329H342.275C342.072 226.329 341.876 226.248 341.733 226.105C341.589 225.961 341.508 225.766 341.508 225.562C341.508 225.359 341.589 225.163 341.733 225.02C341.876 224.876 342.072 224.795 342.275 224.795H384.657C384.86 224.795 385.055 224.876 385.199 225.02C385.343 225.163 385.424 225.359 385.424 225.562C385.424 225.766 385.343 225.961 385.199 226.105C385.055 226.248 384.86 226.329 384.657 226.329Z" fill="#323232"/>
<path d="M334.613 225.481C334.613 224.314 334.959 223.173 335.608 222.203C336.256 221.232 337.178 220.476 338.256 220.029C339.335 219.583 340.521 219.466 341.666 219.693C342.811 219.921 343.862 220.483 344.687 221.309C345.513 222.134 346.075 223.185 346.302 224.33C346.53 225.475 346.413 226.661 345.967 227.74C345.52 228.818 344.764 229.74 343.793 230.388C342.823 231.037 341.682 231.383 340.515 231.383C338.949 231.383 337.448 230.761 336.342 229.654C335.235 228.547 334.613 227.046 334.613 225.481Z" fill="#272727"/>
<path d="M366.188 204.136H427.738V246.088H366.188V204.136Z" fill="white"/>
<path d="M427.739 246.86H366.189C366.088 246.86 365.988 246.84 365.894 246.802C365.801 246.763 365.716 246.706 365.645 246.634C365.573 246.562 365.517 246.477 365.479 246.383C365.441 246.289 365.421 246.189 365.422 246.088V204.135C365.422 203.932 365.503 203.737 365.647 203.593C365.79 203.449 365.986 203.368 366.189 203.368H427.739C427.943 203.368 428.138 203.449 428.282 203.593C428.426 203.737 428.506 203.932 428.506 204.135V246.088C428.507 246.189 428.488 246.289 428.45 246.383C428.411 246.477 428.355 246.562 428.284 246.634C428.212 246.706 428.127 246.763 428.034 246.802C427.941 246.84 427.84 246.86 427.739 246.86ZM366.951 245.321H426.972V204.903H366.951V245.321Z" fill="#272727"/>
<path d="M418.87 214.398H377.421C377.228 214.382 377.048 214.294 376.917 214.151C376.786 214.009 376.713 213.822 376.713 213.628C376.713 213.434 376.786 213.248 376.917 213.105C377.048 212.963 377.228 212.875 377.421 212.858H418.87C419.063 212.875 419.243 212.963 419.374 213.105C419.505 213.248 419.578 213.434 419.578 213.628C419.578 213.822 419.505 214.009 419.374 214.151C419.243 214.294 419.063 214.382 418.87 214.398ZM418.87 222.054H402.18C401.976 222.054 401.781 221.973 401.637 221.829C401.493 221.685 401.413 221.49 401.413 221.286C401.413 221.083 401.493 220.888 401.637 220.744C401.781 220.6 401.976 220.519 402.18 220.519H418.87C419.073 220.519 419.268 220.6 419.412 220.744C419.556 220.888 419.637 221.083 419.637 221.286C419.637 221.49 419.556 221.685 419.412 221.829C419.268 221.973 419.073 222.054 418.87 222.054ZM419.143 231.63H380.023C379.82 231.63 379.625 231.549 379.481 231.405C379.337 231.261 379.256 231.066 379.256 230.863C379.256 230.659 379.337 230.464 379.481 230.32C379.625 230.176 379.82 230.095 380.023 230.095H419.143C419.347 230.095 419.542 230.176 419.686 230.32C419.83 230.464 419.91 230.659 419.91 230.863C419.91 231.066 419.83 231.261 419.686 231.405C419.542 231.549 419.347 231.63 419.143 231.63ZM391.241 238.47H375.919C375.726 238.454 375.546 238.366 375.415 238.223C375.284 238.08 375.211 237.894 375.211 237.7C375.211 237.506 375.284 237.32 375.415 237.177C375.546 237.034 375.726 236.946 375.919 236.93H391.241C391.434 236.946 391.614 237.034 391.745 237.177C391.876 237.32 391.949 237.506 391.949 237.7C391.949 237.894 391.876 238.08 391.745 238.223C391.614 238.366 391.434 238.454 391.241 238.47Z" fill="#272727"/>
<path d="M384.657 54.8869H342.275C342.072 54.8869 341.876 54.806 341.733 54.6622C341.589 54.5183 341.508 54.3232 341.508 54.1197C341.508 53.9162 341.589 53.7211 341.733 53.5772C341.876 53.4334 342.072 53.3525 342.275 53.3525H384.657C384.86 53.3525 385.055 53.4334 385.199 53.5772C385.343 53.7211 385.424 53.9162 385.424 54.1197C385.424 54.3232 385.343 54.5183 385.199 54.6622C385.055 54.806 384.86 54.8869 384.657 54.8869Z" fill="#323232"/>
<path d="M334.613 54.039C334.613 52.8718 334.959 51.7309 335.608 50.7604C336.256 49.7899 337.178 49.0336 338.256 48.5869C339.335 48.1403 340.521 48.0234 341.666 48.2511C342.811 48.4788 343.862 49.0408 344.687 49.8661C345.513 50.6914 346.075 51.7429 346.302 52.8877C346.53 54.0324 346.413 55.219 345.967 56.2973C345.52 57.3756 344.764 58.2972 343.793 58.9457C342.823 59.5941 341.682 59.9402 340.515 59.9402C338.949 59.9402 337.448 59.3185 336.342 58.2118C335.235 57.1051 334.613 55.6041 334.613 54.039Z" fill="#272727"/>
<path d="M366.188 32.6934H427.738V74.6459H366.188V32.6934Z" fill="white"/>
<path d="M427.739 75.4181H366.189C366.088 75.4181 365.988 75.3981 365.894 75.3592C365.801 75.3203 365.716 75.2633 365.645 75.1915C365.573 75.1197 365.517 75.0345 365.479 74.9408C365.441 74.8471 365.421 74.7467 365.422 74.6455V32.6929C365.422 32.4895 365.503 32.2944 365.647 32.1505C365.79 32.0066 365.986 31.9258 366.189 31.9258H427.739C427.943 31.9258 428.138 32.0066 428.282 32.1505C428.426 32.2944 428.506 32.4895 428.506 32.6929V74.6455C428.507 74.7467 428.488 74.8471 428.45 74.9408C428.411 75.0345 428.355 75.1197 428.284 75.1915C428.212 75.2633 428.127 75.3203 428.034 75.3592C427.941 75.3981 427.84 75.4181 427.739 75.4181ZM366.951 73.8784H426.972V33.4601H366.951V73.8784Z" fill="#272727"/>
<path d="M418.87 42.9503H377.421C377.218 42.9503 377.023 42.8695 376.879 42.7256C376.735 42.5818 376.654 42.3866 376.654 42.1832C376.654 41.9797 376.735 41.7846 376.879 41.6407C377.023 41.4968 377.218 41.416 377.421 41.416H418.87C419.073 41.416 419.268 41.4968 419.412 41.6407C419.556 41.7846 419.637 41.9797 419.637 42.1832C419.637 42.3866 419.556 42.5818 419.412 42.7256C419.268 42.8695 419.073 42.9503 418.87 42.9503ZM418.87 50.6113H402.18C401.976 50.6113 401.781 50.5304 401.637 50.3866C401.493 50.2427 401.413 50.0476 401.413 49.8441C401.413 49.6406 401.493 49.4455 401.637 49.3016C401.781 49.1577 401.976 49.0769 402.18 49.0769H418.87C419.073 49.0769 419.268 49.1577 419.412 49.3016C419.556 49.4455 419.637 49.6406 419.637 49.8441C419.637 50.0476 419.556 50.2427 419.412 50.3866C419.268 50.5304 419.073 50.6113 418.87 50.6113ZM419.143 60.1874H380.023C379.83 60.1713 379.65 60.0832 379.519 59.9406C379.388 59.798 379.315 59.6113 379.315 59.4175C379.315 59.2238 379.388 59.0371 379.519 58.8945C379.65 58.7519 379.83 58.6638 380.023 58.6477H419.143C419.336 58.6638 419.516 58.7519 419.647 58.8945C419.779 59.0371 419.851 59.2238 419.851 59.4175C419.851 59.6113 419.779 59.798 419.647 59.9406C419.516 60.0832 419.336 60.1713 419.143 60.1874ZM391.241 67.0275H375.919C375.726 67.0114 375.546 66.9233 375.415 66.7807C375.284 66.6381 375.211 66.4514 375.211 66.2576C375.211 66.0639 375.284 65.8772 375.415 65.7346C375.546 65.592 375.726 65.5039 375.919 65.4878H391.241C391.434 65.5039 391.614 65.592 391.745 65.7346C391.876 65.8772 391.949 66.0639 391.949 66.2576C391.949 66.4514 391.876 66.6381 391.745 66.7807C391.614 66.9233 391.434 67.0114 391.241 67.0275Z" fill="#272727"/>
</g>
<defs>
<clipPath id="clip0_986_44610">
<rect width="454" height="469.976" fill="white"/>
</clipPath>
</defs>
</svg>