<svg width="566" height="567" viewBox="0 0 566 567" fill="none" xmlns="http://www.w3.org/2000/svg">
<g style="mix-blend-mode:multiply">
<path d="M485.059 81.1289H295.712C283.509 81.1289 273.617 91.0203 273.617 103.223V278.439C273.617 290.642 283.509 300.533 295.712 300.533H485.059C497.262 300.533 507.153 290.642 507.153 278.439V103.223C507.156 91.0203 497.262 81.1289 485.059 81.1289Z" fill="white"/>
<path d="M485.059 301.389H295.714C283.058 301.389 272.762 291.092 272.762 278.437V103.223C272.762 90.5677 283.058 80.271 295.714 80.271H485.059C497.715 80.271 508.012 90.5677 508.012 103.223V278.437C508.012 291.095 497.715 301.389 485.059 301.389ZM295.714 81.9848C284.002 81.9848 274.476 91.5118 274.476 103.223V278.437C274.476 290.148 284.002 299.675 295.714 299.675H485.059C496.771 299.675 506.298 290.148 506.298 278.437V103.223C506.298 91.5118 496.771 81.9848 485.059 81.9848H295.714Z" fill="black"/>
<path d="M487.979 141.231V216.091C487.979 220.419 484.468 223.931 480.139 223.931H388.958C384.63 223.931 381.125 220.419 381.125 216.091V141.231C381.125 136.903 384.627 133.391 388.958 133.391H480.139C484.468 133.391 487.979 136.903 487.979 141.231Z" fill="white"/>
<path d="M480.139 224.789H388.959C384.166 224.789 380.27 220.886 380.27 216.091V141.231C380.27 136.436 384.168 132.533 388.959 132.533H480.139C484.934 132.533 488.837 136.436 488.837 141.231V216.091C488.835 220.888 484.934 224.789 480.139 224.789ZM388.959 134.247C385.112 134.247 381.983 137.38 381.983 141.231V216.091C381.983 219.942 385.112 223.075 388.959 223.075H480.139C483.99 223.075 487.124 219.942 487.124 216.091V141.231C487.124 137.38 483.99 134.247 480.139 134.247H388.959Z" fill="black"/>
<path d="M475.971 208.681H393.129L414.13 176.473L425.434 189.914L445.844 162.493L475.971 208.681Z" fill="#EC8503"/>
<path d="M475.971 209.536H393.127C392.812 209.536 392.522 209.364 392.373 209.088C392.223 208.812 392.237 208.474 392.409 208.212L413.41 176.004C413.557 175.778 413.806 175.633 414.075 175.617C414.345 175.597 414.607 175.712 414.784 175.92L425.391 188.533L445.156 161.981C445.323 161.757 445.595 161.632 445.869 161.637C446.147 161.646 446.408 161.791 446.559 162.026L476.686 208.212C476.858 208.474 476.872 208.812 476.723 209.088C476.575 209.364 476.286 209.536 475.971 209.536ZM394.709 207.822H474.388L445.799 163.991L426.12 190.426C425.964 190.636 425.719 190.763 425.459 190.77C425.183 190.775 424.947 190.666 424.777 190.464L414.216 177.906L394.709 207.822Z" fill="black"/>
<path d="M420.227 198.764C420.067 198.764 419.906 198.719 419.761 198.626C419.365 198.368 419.252 197.836 419.51 197.44L424.717 189.445C424.975 189.049 425.505 188.936 425.903 189.194C426.299 189.452 426.413 189.984 426.154 190.381L420.947 198.375C420.782 198.626 420.508 198.764 420.227 198.764Z" fill="black"/>
<path d="M425.434 171.27C430.281 171.27 434.211 167.34 434.211 162.492C434.211 157.645 430.281 153.715 425.434 153.715C420.586 153.715 416.656 157.645 416.656 162.492C416.656 167.34 420.586 171.27 425.434 171.27Z" fill="#EC8503"/>
<path d="M368.163 146.421H292.792C292.319 146.421 291.934 146.036 291.934 145.562C291.934 145.089 292.317 144.704 292.792 144.704H368.163C368.636 144.704 369.021 145.089 369.021 145.562C369.021 146.036 368.638 146.421 368.163 146.421ZM326.15 164.974H292.792C292.319 164.974 291.934 164.589 291.934 164.116C291.934 163.643 292.317 163.258 292.792 163.258H326.15C326.623 163.258 327.008 163.643 327.008 164.116C327.008 164.589 326.623 164.974 326.15 164.974ZM368.163 164.974H348.912C348.439 164.974 348.054 164.589 348.054 164.116C348.054 163.643 348.437 163.258 348.912 163.258H368.163C368.636 163.258 369.021 163.643 369.021 164.116C369.021 164.589 368.638 164.974 368.163 164.974ZM368.163 183.528H292.792C292.319 183.528 291.934 183.143 291.934 182.669C291.934 182.196 292.317 181.811 292.792 181.811H368.163C368.636 181.811 369.021 182.196 369.021 182.669C369.021 183.143 368.638 183.528 368.163 183.528ZM308.131 202.081H292.792C292.319 202.081 291.934 201.696 291.934 201.223C291.934 200.75 292.317 200.365 292.792 200.365H308.131C308.604 200.365 308.989 200.75 308.989 201.223C308.989 201.698 308.604 202.081 308.131 202.081ZM368.163 202.081H319.073C318.6 202.081 318.215 201.696 318.215 201.223C318.215 200.75 318.597 200.365 319.073 200.365H368.163C368.636 200.365 369.021 200.75 369.021 201.223C369.021 201.698 368.638 202.081 368.163 202.081ZM330.479 220.634H292.792C292.319 220.634 291.934 220.25 291.934 219.776C291.934 219.303 292.317 218.918 292.792 218.918H330.479C330.952 218.918 331.337 219.303 331.337 219.776C331.337 220.25 330.952 220.634 330.479 220.634ZM368.163 220.634H343.515C343.042 220.634 342.657 220.25 342.657 219.776C342.657 219.303 343.039 218.918 343.515 218.918H368.165C368.638 218.918 369.023 219.303 369.023 219.776C369.023 220.25 368.638 220.634 368.163 220.634ZM487.978 239.188H292.794C292.321 239.188 291.936 238.803 291.936 238.33C291.936 237.857 292.319 237.472 292.794 237.472H487.978C488.452 237.472 488.836 237.857 488.836 238.33C488.834 238.803 488.452 239.188 487.978 239.188ZM347.744 257.741H292.792C292.319 257.741 291.934 257.357 291.934 256.883C291.934 256.41 292.317 256.025 292.792 256.025H347.744C348.217 256.025 348.602 256.41 348.602 256.883C348.602 257.357 348.219 257.741 347.744 257.741ZM487.978 257.741H372.406C371.933 257.741 371.548 257.357 371.548 256.883C371.548 256.41 371.93 256.025 372.406 256.025H487.978C488.452 256.025 488.836 256.41 488.836 256.883C488.834 257.357 488.452 257.741 487.978 257.741ZM420.554 276.295H292.792C292.319 276.295 291.934 275.91 291.934 275.437C291.934 274.964 292.317 274.579 292.792 274.579H420.554C421.027 274.579 421.412 274.964 421.412 275.437C421.412 275.91 421.03 276.295 420.554 276.295ZM487.978 276.295H443.319C442.846 276.295 442.461 275.91 442.461 275.437C442.461 274.964 442.843 274.579 443.319 274.579H487.978C488.452 274.579 488.836 274.964 488.836 275.437C488.834 275.91 488.452 276.295 487.978 276.295ZM507.155 114.041H273.956C273.483 114.041 273.098 113.656 273.098 113.183C273.098 112.71 273.48 112.325 273.956 112.325H507.155C507.628 112.325 508.013 112.71 508.013 113.183C508.013 113.656 507.628 114.041 507.155 114.041Z" fill="black"/>
<path d="M299.597 98.7043C299.597 101.645 297.211 104.025 294.27 104.025C291.329 104.025 288.945 101.645 288.945 98.7043C288.945 95.7634 291.332 93.3794 294.27 93.3794C297.209 93.3794 299.597 95.7634 299.597 98.7043Z" fill="#EC8503"/>
<path d="M315.426 98.7043C315.426 101.645 313.039 104.025 310.098 104.025C307.157 104.025 304.773 101.645 304.773 98.7043C304.773 95.7634 307.16 93.3794 310.098 93.3794C313.037 93.3794 315.426 95.7634 315.426 98.7043Z" fill="#EC8503"/>
<path d="M331.258 98.7043C331.258 101.645 328.871 104.025 325.93 104.025C322.989 104.025 320.605 101.645 320.605 98.7043C320.605 95.7634 322.992 93.3794 325.93 93.3794C328.869 93.3794 331.258 95.7634 331.258 98.7043Z" fill="#EC8503"/>
<path d="M356.543 209.301L368.685 199.878L378.805 199.475L387.232 199.145L384.823 207.227L381.92 216.931L369.778 226.356L356.543 209.301Z" fill="white"/>
<path d="M369.782 227.211C369.746 227.211 369.712 227.209 369.675 227.205C369.451 227.175 369.245 227.06 369.105 226.879L355.867 209.824C355.577 209.45 355.645 208.912 356.019 208.622L368.161 199.199C368.303 199.09 368.473 199.027 368.652 199.02L387.201 198.289C387.493 198.282 387.742 198.402 387.912 198.619C388.082 198.839 388.136 199.124 388.057 199.389L382.745 217.175C382.693 217.347 382.591 217.497 382.449 217.608L370.307 227.03C370.155 227.15 369.97 227.211 369.782 227.211ZM357.746 209.453L369.931 225.153L381.179 216.423L386.069 200.05L368.994 200.725L357.746 209.453Z" fill="black"/>
<path d="M340.469 242.256C340.469 242.256 345.441 206.222 353.215 204.499C360.99 202.776 356.328 233.56 356.328 233.56L340.469 242.256Z" fill="white"/>
<path d="M340.467 243.113C340.297 243.113 340.125 243.064 339.98 242.962C339.713 242.778 339.572 242.459 339.618 242.138C340.134 238.389 344.904 205.461 353.027 203.661C354.148 203.412 355.171 203.684 355.989 204.447C360.768 208.913 357.558 231.164 357.175 233.686C357.137 233.951 356.974 234.182 356.74 234.309L340.881 243.005C340.75 243.077 340.609 243.113 340.467 243.113ZM353.824 205.287C353.691 205.287 353.55 205.302 353.401 205.336C348.33 206.459 343.661 226.475 341.56 240.68L355.543 233.014C356.553 226.102 358.239 208.898 354.821 205.701C354.519 205.422 354.202 205.287 353.824 205.287Z" fill="black"/>
<path d="M368.308 200.175C369.146 208.633 373.558 214.316 381.543 217.225L325.747 260.531L312.512 243.481L368.308 200.175Z" fill="#EC8503"/>
<path d="M325.748 261.389C325.712 261.389 325.678 261.386 325.642 261.382C325.418 261.352 325.212 261.237 325.071 261.056L311.836 244.006C311.546 243.632 311.614 243.093 311.988 242.803L367.784 199.498C368.031 199.307 368.361 199.264 368.649 199.387C368.936 199.509 369.133 199.778 369.163 200.091C369.973 208.266 374.119 213.609 381.839 216.421C382.131 216.527 382.344 216.785 382.391 217.093C382.439 217.401 382.317 217.711 382.07 217.904L326.273 261.21C326.122 261.327 325.936 261.389 325.748 261.389ZM313.717 243.632L325.9 259.328L379.831 217.469C372.896 214.499 368.805 209.228 367.648 201.773L313.717 243.632Z" fill="black"/>
<path d="M357.714 293.383L323.344 273.313C323.344 273.313 329.427 257.279 332.259 252.099C337.29 242.898 356.554 215.375 362.162 221.522C364.404 223.985 364.209 229.738 362.221 233.15C362.221 233.15 379.618 242.339 380.843 250.211C381.642 255.35 357.714 293.383 357.714 293.383Z" fill="white"/>
<path d="M357.714 294.241C357.566 294.241 357.417 294.203 357.283 294.124L322.914 274.053C322.551 273.843 322.395 273.401 322.545 273.01C322.794 272.353 328.68 256.86 331.51 251.689C334.904 245.479 351.164 220.824 359.584 219.812C360.874 219.656 361.983 220.048 362.799 220.944C365.244 223.634 365.09 229.158 363.374 232.801C366.808 234.705 380.553 242.751 381.694 250.082C382.516 255.384 360.908 289.922 358.443 293.843C358.277 294.099 357.999 294.241 357.714 294.241ZM324.406 272.939L357.431 292.226C366.627 277.558 380.535 253.799 379.998 250.345C378.853 242.987 361.993 233.999 361.823 233.908C361.617 233.799 361.463 233.609 361.399 233.385C361.336 233.161 361.365 232.919 361.483 232.717C363.396 229.434 363.421 224.175 361.531 222.097C361.087 221.61 360.528 221.422 359.787 221.513C352.955 222.334 337.732 243.881 333.013 252.509C330.57 256.978 325.594 269.838 324.406 272.939Z" fill="black"/>
<path d="M309.721 245.647C296.592 255.837 309.827 272.887 322.956 262.697L325.746 260.533L312.51 243.482L309.721 245.647Z" fill="#EC8503"/>
<path d="M314.695 266.72C310.976 266.72 307.804 264.9 305.816 262.342C302.377 257.909 301.965 250.583 309.196 244.97L311.985 242.806C312.361 242.516 312.898 242.584 313.188 242.957L326.423 260.008C326.561 260.186 326.625 260.415 326.597 260.639C326.568 260.866 326.452 261.069 326.274 261.21L323.484 263.374C320.43 265.745 317.417 266.72 314.695 266.72ZM310.249 246.324C306.502 249.231 304.727 252.933 305.252 256.745C305.714 260.109 307.953 262.996 311.098 264.277C314.659 265.731 318.687 264.929 322.432 262.023L324.544 260.383L312.361 244.687L310.249 246.324Z" fill="black"/>
<path d="M378.805 199.475L387.231 199.145L384.822 207.227L378.805 199.475Z" fill="black"/>
<path d="M384.822 208.083C384.559 208.083 384.308 207.963 384.145 207.75L378.13 199.998C377.933 199.744 377.894 199.402 378.03 199.11C378.166 198.818 378.453 198.628 378.773 198.615L387.199 198.284C387.491 198.277 387.74 198.397 387.91 198.615C388.08 198.834 388.134 199.119 388.055 199.384L385.646 207.464C385.555 207.772 385.3 208.003 384.983 208.062C384.926 208.078 384.874 208.083 384.822 208.083ZM380.504 200.265L384.478 205.382L386.069 200.048L380.504 200.265ZM341.645 263.478C341.213 263.478 340.841 263.152 340.794 262.713C340.744 262.242 341.084 261.819 341.555 261.769C347.799 261.103 351.912 259.027 353.78 255.602C356.665 250.313 353.278 243.448 353.244 243.381C353.069 243.036 353.149 242.618 353.434 242.36C353.486 242.312 358.603 237.655 361.478 232.719C361.716 232.31 362.241 232.172 362.651 232.409C363.058 232.647 363.196 233.172 362.958 233.582C360.432 237.915 356.409 241.907 355.046 243.202C355.872 245.117 358.1 251.264 355.286 256.424C353.133 260.372 348.575 262.745 341.738 263.474C341.706 263.476 341.675 263.478 341.645 263.478Z" fill="black"/>
<path d="M362.126 233.582C363.516 231.099 366.407 230.073 368.583 231.289C370.759 232.507 371.397 235.507 370.007 237.99C368.617 240.474 364.297 244.055 362.122 242.837C359.944 241.622 360.736 236.066 362.126 233.582Z" fill="white"/>
<path d="M363.1 243.931C362.599 243.931 362.126 243.824 361.7 243.587C360.424 242.874 359.794 241.117 359.928 238.64C360.032 236.7 360.6 234.549 361.374 233.166C362.149 231.782 363.353 230.745 364.768 230.243C366.224 229.726 367.725 229.833 368.997 230.544C370.27 231.255 371.146 232.48 371.467 233.99C371.78 235.459 371.526 237.03 370.752 238.411C369.457 240.727 365.848 243.931 363.1 243.931ZM366.591 231.635C366.181 231.635 365.762 231.71 365.343 231.857C364.32 232.219 363.442 232.982 362.871 234.001C362.223 235.158 361.73 237.057 361.639 238.73C361.547 240.442 361.891 241.728 362.536 242.09C363.987 242.903 367.895 240.005 369.255 237.574C369.826 236.555 370.016 235.407 369.79 234.345C369.572 233.324 368.993 232.504 368.16 232.038C367.682 231.769 367.145 231.635 366.591 231.635Z" fill="black"/>
<path d="M368.297 239.892C369.687 237.408 372.578 236.383 374.754 237.598C376.93 238.814 377.568 241.816 376.178 244.3C374.788 246.783 370.468 250.365 368.293 249.147C366.117 247.929 366.907 242.375 368.297 239.892Z" fill="white"/>
<path d="M369.299 250.248C368.771 250.248 368.293 250.132 367.872 249.897C366.595 249.184 365.966 247.427 366.1 244.95C366.204 243.01 366.772 240.859 367.546 239.473C369.165 236.58 372.584 235.405 375.169 236.852C376.442 237.563 377.318 238.787 377.639 240.297C377.952 241.767 377.698 243.338 376.924 244.719C376.15 246.105 374.615 247.712 373.014 248.817C371.646 249.763 370.374 250.248 369.299 250.248ZM372.763 237.943C371.348 237.943 369.878 238.817 369.045 240.309C368.398 241.466 367.904 243.365 367.813 245.038C367.721 246.75 368.065 248.036 368.71 248.398C369.351 248.758 370.632 248.38 372.043 247.406C373.421 246.453 374.784 245.038 375.43 243.881C376 242.863 376.19 241.715 375.964 240.653C375.747 239.632 375.167 238.812 374.334 238.346C373.845 238.074 373.308 237.943 372.763 237.943Z" fill="black"/>
<path d="M373.437 246.682C374.827 244.198 377.718 243.173 379.894 244.388C382.07 245.606 382.708 248.606 381.318 251.09C379.928 253.573 375.608 257.155 373.432 255.937C371.257 254.721 372.049 249.168 373.437 246.682Z" fill="white"/>
<path d="M374.414 257.03C373.914 257.03 373.441 256.924 373.015 256.686C370.26 255.145 371.159 249.002 372.692 246.263C374.31 243.37 377.729 242.194 380.314 243.641C382.9 245.088 383.686 248.617 382.069 251.511C380.772 253.827 377.165 257.03 374.414 257.03ZM377.908 244.735C376.493 244.735 375.023 245.609 374.19 247.101C372.83 249.532 372.406 254.379 373.855 255.19C375.306 256 379.214 253.105 380.575 250.673C381.732 248.606 381.24 246.123 379.481 245.138C378.988 244.864 378.451 244.735 377.908 244.735Z" fill="black"/>
<path d="M359.149 298.05C359.149 298.05 357.992 301.778 355.918 307.821V307.83C347.304 332.888 326.246 386.916 302.313 390.679C268.265 396.035 186.922 338.738 186.922 338.738L190.685 288.889C190.685 288.889 215.346 290.458 239.614 300.316C258.752 308.084 255.095 306.632 288.623 324.224L312.929 280.567L317.867 270.879C326.454 259.722 367.738 286.897 359.149 298.05Z" fill="white"/>
<path d="M359.15 298.05C359.15 298.05 357.994 301.778 355.92 307.821C349.474 284.205 312.922 280.612 312.922 280.612C312.922 280.612 312.922 280.594 312.931 280.569L317.869 270.882C326.456 259.722 367.74 286.897 359.15 298.05Z" fill="#EC8503"/>
<path d="M297.448 391.892C261.319 391.892 189.6 341.677 186.421 339.438C186.174 339.263 186.038 338.973 186.061 338.672L189.831 288.83C189.867 288.362 190.283 288.013 190.741 288.04C190.987 288.056 215.815 289.727 239.94 299.523C255.856 305.987 256.211 306.175 274.83 315.996C278.511 317.939 282.908 320.257 288.278 323.076L317.117 270.474C317.138 270.435 317.162 270.399 317.19 270.363C322.306 263.711 337.52 269.086 349.277 278.126C357.201 284.221 364.122 292.736 359.927 298.446C358.29 303.718 332.021 386.868 302.446 391.523C300.871 391.772 299.202 391.892 297.448 391.892ZM187.809 338.312C194.014 342.625 270.058 394.885 302.179 389.832C331.023 385.293 358.062 298.674 358.333 297.8C358.363 297.703 358.41 297.612 358.471 297.531C362.098 292.815 355.223 284.864 348.231 279.487C337.373 271.135 322.899 265.896 318.587 271.359L289.376 324.638C289.152 325.048 288.643 325.204 288.226 324.984C282.514 321.987 277.88 319.542 274.029 317.511C255.131 307.54 255.131 307.54 239.294 301.11C217.929 292.432 195.998 290.198 191.474 289.815L187.809 338.312Z" fill="black"/>
<path d="M264.553 492.86H107.364C107.364 492.86 83.7297 318.747 104.466 305.786C110.904 301.765 118.328 298.5 126.309 295.935C126.934 295.738 127.561 295.541 128.195 295.344C149.282 288.905 173.85 287.225 193.91 289.172C194.817 289.259 195.718 289.351 196.61 289.465C201.539 290.031 206.151 290.827 210.344 291.83L244.308 339.707C257.378 396.971 264.553 492.86 264.553 492.86Z" fill="white"/>
<path d="M196.816 289.593L196.194 369.551L126.309 295.937C126.933 295.74 127.561 295.543 128.194 295.346C149.281 288.907 173.85 287.227 193.909 289.174C194.817 289.26 195.718 289.353 196.61 289.466L196.816 289.593Z" fill="#EC8503"/>
<path d="M107.365 493.716C106.942 493.716 106.575 493.403 106.516 492.973C105.549 485.842 83.0497 318.161 104.014 305.057C110.738 300.857 118.789 297.314 127.947 294.522C147.578 288.529 172.269 286.209 193.995 288.317C199.96 288.894 205.53 289.795 210.545 290.993C211.004 291.104 211.289 291.566 211.178 292.025C211.07 292.485 210.606 292.77 210.146 292.659C205.206 291.477 199.718 290.59 193.829 290.021C172.321 287.934 147.875 290.23 128.447 296.159C119.432 298.905 111.517 302.387 104.922 306.508C99.2101 310.078 93.5456 329.909 98.995 404.109C102.271 448.714 108.155 492.305 108.216 492.74C108.28 493.209 107.951 493.641 107.483 493.704C107.442 493.714 107.404 493.716 107.365 493.716ZM264.557 493.716C264.113 493.716 263.737 493.374 263.703 492.923C263.631 491.966 256.384 396.441 243.474 339.897C243.368 339.436 243.658 338.976 244.12 338.872C244.579 338.768 245.041 339.055 245.145 339.517C258.084 396.187 265.34 491.837 265.413 492.797C265.449 493.27 265.093 493.68 264.622 493.716C264.6 493.716 264.577 493.716 264.557 493.716Z" fill="black"/>
<path d="M171.746 414.213C171.746 414.213 189.113 398.877 195.216 400.797C201.32 402.717 191.698 414.374 191.698 414.374C191.698 414.374 217.755 405.091 220.385 408.992C223.016 412.893 207.922 418.297 207.922 418.297C207.922 418.297 221.54 417.215 224.08 419.515C226.62 421.816 224.264 424.94 221.549 425.667C221.549 425.667 227.66 429.432 221.483 433.165C221.483 433.165 225.373 436.111 219.586 439.095C213.797 442.078 200.725 444.32 196.194 444.478C185.588 444.85 175.447 441.866 175.447 441.866C171.275 435.019 166.197 422.16 171.746 414.213Z" fill="white"/>
<path d="M194.315 445.364C184.435 445.364 175.603 442.801 175.209 442.685C175.005 442.624 174.829 442.491 174.72 442.309C169.635 433.976 165.623 421.487 171.043 413.722C171.082 413.665 171.127 413.616 171.179 413.57C172.995 411.967 189.096 397.976 195.474 399.977C196.744 400.376 197.593 401.191 197.933 402.334C198.8 405.259 196.054 409.855 194.093 412.633C202.184 409.882 218.63 404.858 221.096 408.512C221.564 409.21 221.673 410.004 221.408 410.815C220.627 413.199 216.373 415.583 212.882 417.186C217.24 417.086 222.9 417.288 224.655 418.877C225.798 419.914 226.248 421.234 225.918 422.595C225.601 423.905 224.569 425.132 223.224 425.893C224.095 426.71 225.107 427.994 225.101 429.55C225.094 430.919 224.324 432.18 222.807 433.306C223.251 433.887 223.697 434.748 223.609 435.787C223.477 437.311 222.255 438.678 219.977 439.853C213.959 442.955 200.525 445.182 196.223 445.332C195.587 445.355 194.946 445.364 194.315 445.364ZM176.006 441.13C177.792 441.619 186.862 443.942 196.167 443.618C200.351 443.471 213.389 441.32 219.194 438.329C220.883 437.458 221.82 436.532 221.899 435.649C221.992 434.653 220.973 433.851 220.962 433.842C220.74 433.67 220.613 433.396 220.629 433.113C220.645 432.83 220.799 432.574 221.039 432.427C222.59 431.49 223.38 430.521 223.387 429.547C223.396 428.135 221.736 426.792 221.096 426.394C220.806 426.212 220.65 425.877 220.699 425.54C220.749 425.203 220.996 424.926 221.327 424.838C222.719 424.467 223.975 423.33 224.252 422.196C224.43 421.451 224.181 420.763 223.505 420.152C221.854 418.657 213.113 418.746 207.989 419.153C207.575 419.189 207.174 418.9 207.084 418.479C206.993 418.057 207.229 417.636 207.634 417.491C211.92 415.956 219.006 412.642 219.778 410.283C219.88 409.973 219.848 409.731 219.674 409.472C218.281 407.403 204.215 410.826 191.985 415.182C191.623 415.311 191.218 415.182 190.996 414.868C190.774 414.553 190.79 414.127 191.036 413.831C192.778 411.718 197.118 405.621 196.287 402.823C196.176 402.449 195.918 401.917 194.958 401.616C190.36 400.17 177.185 410.568 172.39 414.791C167.588 421.798 171.292 433.272 176.006 441.13Z" fill="black"/>
<path d="M208.699 427.591C208.258 427.591 207.882 427.254 207.846 426.806C207.807 426.335 208.156 425.92 208.629 425.88L221.477 424.809C221.964 424.773 222.365 425.121 222.403 425.592C222.442 426.063 222.093 426.477 221.62 426.518L208.772 427.589C208.747 427.591 208.724 427.591 208.699 427.591ZM208.541 434.754C208.09 434.754 207.712 434.401 207.685 433.946C207.658 433.473 208.02 433.068 208.491 433.041L221.434 432.305C221.905 432.275 222.31 432.64 222.338 433.111C222.365 433.584 222.003 433.989 221.532 434.016L208.588 434.752C208.573 434.754 208.557 434.754 208.541 434.754Z" fill="black"/>
<path d="M173.421 450.65C173.421 450.65 171.329 451.327 167.72 452.398C148.981 457.978 89.4558 474.232 71.5226 461.553C44.7848 442.642 67.1848 350.438 77.4633 330.637C87.348 311.59 112.345 301.004 123.669 297.042L128.804 329.299C130.622 343.581 110.391 413.883 110.391 413.883L163.015 407.111C180.509 398.075 189.382 441.494 173.421 450.65Z" fill="white"/>
<path d="M173.419 450.65C173.419 450.65 171.327 451.327 167.719 452.398C176.72 436.908 163.012 407.111 163.012 407.111C180.508 398.075 189.381 441.494 173.419 450.65Z" fill="#EC8503"/>
<path d="M93.5154 467.15C84.0677 467.15 76.0238 465.785 71.0271 462.253C43.4108 442.726 66.7142 349.49 76.703 330.239C86.8253 310.735 112.721 299.96 123.384 296.234C123.833 296.078 124.319 296.313 124.478 296.761C124.634 297.207 124.399 297.696 123.95 297.853C113.479 301.511 88.0614 312.07 78.2244 331.029C67.5745 351.552 46.3088 442.676 72.0165 460.854C92.5011 475.339 170.03 450.836 173.072 449.864C182.495 444.358 183.054 425.135 176.867 413.776C174.827 410.031 170.365 404.283 163.405 407.878C163.317 407.924 163.219 407.955 163.122 407.967L110.498 414.734C110.203 414.77 109.925 414.661 109.737 414.442C109.549 414.222 109.483 413.923 109.563 413.647C109.764 412.945 129.719 343.357 127.949 329.408C127.89 328.94 128.223 328.509 128.691 328.451C129.162 328.389 129.59 328.722 129.649 329.193C131.351 342.603 114.362 403.054 111.566 412.868L162.753 406.287C168.732 403.28 174.419 405.703 178.37 412.959C184.361 423.957 185.101 444.945 173.844 451.399C173.792 451.429 173.738 451.454 173.681 451.472C171.15 452.287 124.695 467.15 93.5154 467.15Z" fill="black"/>
<path d="M134.965 293.755L190.686 353.644V288.894C190.686 288.894 178.015 283.17 178.877 260.383C164.127 265.21 141.53 261.64 141.53 261.64C141.53 261.64 146.751 286.947 134.965 293.755Z" fill="white"/>
<path d="M190.687 354.502C190.454 354.502 190.225 354.407 190.06 354.228L134.338 294.339C134.162 294.149 134.08 293.886 134.119 293.628C134.157 293.37 134.311 293.143 134.538 293.012C145.652 286.591 140.745 262.059 140.693 261.812C140.637 261.536 140.718 261.25 140.913 261.047C141.108 260.843 141.391 260.748 141.667 260.791C141.891 260.827 164.232 264.273 178.613 259.568C178.878 259.48 179.172 259.53 179.396 259.7C179.621 259.869 179.747 260.137 179.736 260.417C178.907 282.288 190.92 288.059 191.042 288.115C191.348 288.255 191.545 288.561 191.545 288.896V353.647C191.545 354 191.33 354.314 191.002 354.444C190.898 354.484 190.791 354.502 190.687 354.502ZM136.292 293.925L189.829 351.466V289.417C187.434 288.081 177.628 281.393 177.988 261.556C165.059 265.332 147.363 263.311 142.593 262.659C143.465 267.73 146.059 287.09 136.292 293.925Z" fill="black"/>
<path d="M157.356 265.29C168.999 265.697 183.145 263.447 189.842 253.331C196.554 243.193 197.985 225.731 193.928 206.145C193.928 206.145 193.928 206.136 193.919 206.12C189.185 183.215 174.895 162.253 159.28 161.008C135.146 159.085 133.774 216.066 133.774 216.066C133.774 216.066 124.985 212.036 123.613 220.358C121.876 230.841 137.303 237.927 137.303 237.927L141.843 263.476" fill="white"/>
<path d="M159.817 266.188C158.939 266.188 158.108 266.173 157.327 266.145C156.854 266.129 156.485 265.731 156.5 265.258C156.516 264.785 156.919 264.411 157.388 264.432C166.168 264.737 181.986 263.644 189.129 252.856C195.613 243.066 197.096 225.688 193.1 206.36C193.093 206.337 193.087 206.315 193.082 206.29C188.083 182.101 173.523 163 159.215 161.859C155.486 161.562 152.111 162.764 149.156 165.429C135.719 177.539 134.646 215.699 134.635 216.082C134.628 216.369 134.476 216.634 134.232 216.788C133.989 216.94 133.684 216.962 133.421 216.842C133.383 216.824 129.495 215.085 126.862 216.491C125.597 217.166 124.789 218.515 124.463 220.496C122.853 230.222 137.517 237.078 137.666 237.146C137.922 237.263 138.103 237.499 138.153 237.775L142.695 263.324C142.778 263.791 142.466 264.235 142 264.318C141.54 264.402 141.089 264.09 141.006 263.623L136.541 238.506C133.996 237.252 121.091 230.356 122.771 220.216C123.19 217.678 124.297 215.914 126.063 214.974C128.44 213.709 131.366 214.331 132.964 214.843C133.245 208.067 135.244 175.665 148.008 164.159C151.329 161.164 155.151 159.817 159.353 160.152C174.386 161.349 189.602 181.021 194.755 205.912C194.762 205.932 194.764 205.952 194.769 205.97H194.771C198.93 226.048 197.395 243.483 190.56 253.804C183.603 264.307 169.22 266.188 159.817 266.188Z" fill="black"/>
<path d="M165.4 216.83C166.926 216.679 168.002 214.942 167.804 212.951C167.606 210.961 166.209 209.47 164.684 209.621C163.158 209.773 162.082 211.509 162.28 213.5C162.478 215.491 163.875 216.982 165.4 216.83Z" fill="black"/>
<path d="M183.4 212.83C184.926 212.678 186.002 210.942 185.804 208.951C185.606 206.96 184.209 205.469 182.684 205.621C181.158 205.772 180.082 207.509 180.28 209.5C180.478 211.49 181.875 212.981 183.4 212.83Z" fill="black"/>
<path d="M167.102 202.477C167.102 202.477 162.11 199.883 156.941 205.18L167.102 202.477Z" fill="white"/>
<path d="M156.939 206.036C156.724 206.036 156.507 205.954 156.341 205.791C156.002 205.461 155.995 204.918 156.325 204.58C161.875 198.893 167.439 201.687 167.496 201.716C167.917 201.934 168.08 202.452 167.863 202.873C167.643 203.292 167.129 203.455 166.71 203.24C166.516 203.143 162.182 201.037 157.555 205.778C157.385 205.95 157.163 206.036 156.939 206.036Z" fill="black"/>
<path d="M187.309 200.027C187.309 200.027 182.317 197.433 177.148 202.731L187.309 200.027Z" fill="white"/>
<path d="M177.146 203.587C176.931 203.587 176.714 203.505 176.548 203.342C176.209 203.011 176.202 202.468 176.533 202.129C182.084 196.441 187.646 199.235 187.703 199.265C188.124 199.482 188.287 200 188.07 200.421C187.85 200.84 187.336 201.003 186.915 200.788C186.714 200.686 182.383 198.592 177.76 203.328C177.59 203.501 177.368 203.587 177.146 203.587Z" fill="black"/>
<path d="M176.35 213.87C177.966 219.17 179.585 224.472 181.202 229.772C181.469 230.644 181.736 231.558 181.566 232.455C181.344 233.618 180.398 234.538 179.325 235.04C178.252 235.543 177.054 235.695 175.879 235.839" fill="white"/>
<path d="M175.879 236.7C175.451 236.7 175.082 236.383 175.03 235.948C174.971 235.477 175.306 235.049 175.775 234.993C176.871 234.857 178.003 234.716 178.963 234.268C179.916 233.822 180.575 233.086 180.724 232.298C180.86 231.59 180.606 230.759 180.382 230.025L175.53 214.123C175.392 213.67 175.646 213.19 176.099 213.052C176.552 212.914 177.032 213.17 177.17 213.623L182.021 229.525C182.289 230.401 182.621 231.495 182.409 232.62C182.155 233.947 181.138 235.142 179.689 235.821C178.485 236.385 177.156 236.55 175.986 236.695C175.952 236.697 175.915 236.7 175.879 236.7Z" fill="black"/>
<path d="M166.848 243.967C170.461 246.261 175.055 246.949 179.18 245.812L166.848 243.967Z" fill="white"/>
<path d="M175.168 247.203C172.082 247.203 168.989 246.34 166.39 244.69C165.992 244.436 165.872 243.906 166.125 243.505C166.381 243.105 166.909 242.987 167.309 243.241C170.714 245.403 175.066 246.052 178.955 244.982C179.413 244.857 179.884 245.124 180.01 245.579C180.135 246.037 179.868 246.508 179.413 246.634C178.032 247.017 176.601 247.203 175.168 247.203Z" fill="black"/>
<path d="M144.928 193.743C142.976 194.583 139.986 195.688 138.541 197.297C137.344 198.622 137.654 199.867 137.803 201.597C138.018 204.017 141.627 218.678 138.319 219.591C135.186 220.462 133.782 216.061 133.782 216.061C133.782 216.061 124.991 212.031 123.619 220.354C121.883 230.843 137.31 237.925 137.31 237.925C137.31 237.925 141.851 263.469 141.851 263.474C142.084 264.826 115.894 254.377 110.837 248.901C101.074 238.33 89.9558 221.37 95.3351 206.306C96.6889 202.511 99.3537 199.892 101.536 196.654C105.299 191.076 106.684 186.011 105.704 179.206C104.812 173.02 102.892 166.713 104.398 160.645C105.58 155.886 108.921 151.723 113.28 149.472C117.638 147.222 122.931 146.898 127.556 148.524C133.909 150.758 139.209 156.473 145.945 156.341C150.756 156.249 154.896 153.147 158.908 150.487C164.127 147.025 169.834 144.064 176.024 143.09C182.212 142.117 188.965 143.353 193.688 147.467C198.41 151.58 200.534 158.841 197.747 164.451C196.733 166.493 195.171 168.207 193.925 170.118C192.68 172.029 191.725 174.311 192.155 176.55C192.642 179.079 198.078 179.461 197.254 181.902C191.039 200.292 149.585 191.728 144.928 193.743Z" fill="black"/>
<path d="M141.723 264.409C137.661 264.409 114.523 254.16 110.203 249.482C103.439 242.158 88.3671 223.258 94.5252 206.018C95.5169 203.242 97.1832 201.055 98.7974 198.943C99.4766 198.053 100.178 197.132 100.824 196.176C104.602 190.573 105.771 185.692 104.854 179.33C104.652 177.924 104.389 176.479 104.136 175.083C103.262 170.269 102.359 165.293 103.563 160.441C104.795 155.476 108.279 151.093 112.884 148.714C117.394 146.384 122.984 146.013 127.838 147.718C130.335 148.596 132.665 149.988 134.92 151.336C138.558 153.511 142.026 155.558 145.925 155.488C150.038 155.408 153.733 152.927 157.306 150.527L158.431 149.776C164.879 145.499 170.426 143.106 175.887 142.248C182.835 141.154 189.699 142.866 194.248 146.823C199.505 151.403 201.338 159.146 198.513 164.836C197.838 166.194 196.942 167.403 196.075 168.574C195.588 169.23 195.085 169.907 194.642 170.589C193.224 172.757 192.672 174.711 192.996 176.391C193.147 177.181 194.273 177.79 195.362 178.379C196.863 179.192 198.733 180.202 198.065 182.18C193.245 196.448 169.038 195.232 154.573 194.505C150.312 194.293 146.285 194.089 145.271 194.528C145.271 194.528 145.271 194.528 145.268 194.528C145.01 194.639 144.734 194.754 144.449 194.874C142.701 195.608 140.308 196.611 139.18 197.867C138.415 198.714 138.451 199.45 138.599 200.901C138.619 201.1 138.639 201.307 138.657 201.519C138.698 201.974 138.893 203.032 139.119 204.257C140.602 212.278 141.675 219.552 138.546 220.415C135.658 221.218 133.803 218.529 133.099 216.704C132.108 216.321 129.053 215.316 126.864 216.484C125.599 217.159 124.79 218.506 124.462 220.487C122.852 230.204 137.516 237.073 137.666 237.141C137.919 237.259 138.103 237.494 138.15 237.771C141.961 259.206 142.583 262.706 142.685 263.324L142.692 263.322C142.762 263.736 142.556 264.139 142.176 264.327C142.074 264.384 141.922 264.409 141.723 264.409ZM121.53 148.37C118.793 148.37 116.063 148.999 113.67 150.235C109.497 152.391 106.341 156.359 105.227 160.851C104.111 165.345 104.983 170.138 105.823 174.772C106.078 176.185 106.343 177.645 106.552 179.081C107.534 185.909 106.287 191.139 102.245 197.132C101.573 198.128 100.855 199.07 100.16 199.98C98.5574 202.081 97.0428 204.066 96.1395 206.593C90.2983 222.953 104.91 241.223 111.462 248.318C115.752 252.962 136.158 261.436 140.822 262.602C140.052 258.264 137.059 241.429 136.538 238.509C133.994 237.254 121.089 230.358 122.769 220.213C123.187 217.675 124.295 215.912 126.06 214.972C129.447 213.17 133.944 215.194 134.134 215.28C134.354 215.38 134.519 215.57 134.593 215.798C134.605 215.832 135.782 219.405 138.085 218.764C138.94 218.529 139.518 215.875 137.428 204.571C137.174 203.199 136.991 202.21 136.944 201.671C136.925 201.465 136.905 201.268 136.885 201.076C136.733 199.581 136.588 198.169 137.897 196.72C139.278 195.178 141.773 194.134 143.776 193.294C144.059 193.176 144.329 193.063 144.582 192.955C145.902 192.384 148.945 192.506 154.65 192.794C168.626 193.496 192.024 194.671 196.43 181.632C196.604 181.114 196.086 180.727 194.537 179.889C193.165 179.146 191.608 178.304 191.302 176.717C190.892 174.585 191.529 172.207 193.195 169.654C193.668 168.929 194.186 168.229 194.687 167.553C195.547 166.391 196.36 165.295 196.967 164.073C199.457 159.058 197.8 152.198 193.111 148.116C188.943 144.485 182.599 142.925 176.142 143.939C170.933 144.759 165.601 147.068 159.368 151.202L158.252 151.949C154.474 154.487 150.566 157.111 145.95 157.202C141.494 157.288 137.718 155.01 134.032 152.807C131.852 151.503 129.595 150.156 127.26 149.336C125.431 148.689 123.48 148.37 121.53 148.37Z" fill="black"/>
<path d="M434.497 439.638L381.087 427.143C374.908 425.696 371.071 419.516 372.515 413.337L385.01 359.927C386.457 353.749 392.638 349.911 398.816 351.356L452.226 363.851C458.405 365.297 462.242 371.478 460.798 377.656L448.303 431.066C446.856 437.245 440.675 441.082 434.497 439.638Z" fill="#EC8503"/>
<path d="M432.598 430.36C431.67 430.36 430.726 430.254 429.784 430.034L376.372 417.539C373.161 416.787 370.433 414.831 368.694 412.029C366.953 409.226 366.41 405.913 367.162 402.703L379.657 349.293C380.408 346.08 382.364 343.355 385.167 341.616C387.97 339.877 391.282 339.331 394.493 340.083L447.905 352.578C451.115 353.33 453.843 355.286 455.582 358.089C457.323 360.892 457.867 364.204 457.115 367.414L444.62 420.824C443.289 426.511 438.201 430.36 432.598 430.36ZM430.173 428.366C435.879 429.699 441.613 426.142 442.949 420.435L455.444 367.025C456.092 364.26 455.623 361.408 454.124 358.994C452.625 356.581 450.278 354.896 447.513 354.249L394.101 341.754C391.337 341.109 388.484 341.575 386.071 343.074C383.657 344.573 381.973 346.92 381.325 349.685L368.83 403.095C368.183 405.859 368.651 408.712 370.15 411.125C371.649 413.539 373.997 415.223 376.761 415.871L430.173 428.366Z" fill="black"/>
<path d="M431.613 378.992C431.484 379.547 431.351 380.011 431.21 380.391C431.07 380.772 430.927 381.068 430.776 381.286C430.624 381.501 430.463 381.648 430.293 381.729C430.124 381.811 429.954 381.831 429.782 381.79L420.513 379.621L413.533 409.459C413.488 409.649 413.386 409.805 413.227 409.93C413.067 410.054 412.833 410.129 412.526 410.158C412.218 410.188 411.815 410.172 411.314 410.118C410.814 410.061 410.203 409.948 409.478 409.778C408.754 409.608 408.154 409.436 407.681 409.266C407.207 409.094 406.838 408.929 406.576 408.768C406.311 408.605 406.137 408.433 406.048 408.25C405.958 408.069 405.937 407.883 405.983 407.693L412.963 377.856L403.694 375.687C403.504 375.641 403.354 375.548 403.248 375.401C403.141 375.256 403.067 375.055 403.028 374.792C402.99 374.532 402.99 374.201 403.035 373.798C403.078 373.398 403.166 372.92 403.295 372.368C403.429 371.795 403.567 371.313 403.707 370.925C403.848 370.536 403.995 370.235 404.146 370.018C404.298 369.8 404.452 369.655 404.611 369.581C404.769 369.508 404.943 369.492 405.134 369.538L431.224 375.641C431.396 375.682 431.541 375.773 431.659 375.909C431.779 376.047 431.856 376.246 431.896 376.508C431.937 376.769 431.933 377.106 431.887 377.518C431.837 377.926 431.747 378.419 431.613 378.992Z" fill="white"/>
<path d="M244.49 87.6041L198.796 75.5189C192.054 73.7348 185.144 77.7557 183.362 84.4979L176.126 111.854C174.342 118.596 178.363 125.506 185.105 127.29L230.8 139.375C237.542 141.159 244.452 137.138 246.236 130.396L253.471 103.04C255.251 96.2978 251.232 89.3881 244.49 87.6041Z" fill="white"/>
<path d="M234.022 140.652C232.883 140.652 231.728 140.507 230.576 140.201L184.882 128.116C177.694 126.214 173.392 118.82 175.294 111.634L182.529 84.2784C183.451 80.7963 185.672 77.8826 188.785 76.0714C191.898 74.2602 195.529 73.7711 199.011 74.6903L244.706 86.7756C248.188 87.697 251.102 89.918 252.913 93.031C254.724 96.144 255.213 99.7754 254.294 103.257L247.058 130.613C245.462 136.651 239.99 140.652 234.022 140.652ZM195.545 75.9514C193.492 75.9514 191.468 76.4925 189.648 77.552C186.931 79.1323 184.99 81.677 184.187 84.7153L176.951 112.071C175.292 118.345 179.045 124.799 185.321 126.459L231.015 138.544C234.054 139.348 237.223 138.92 239.942 137.34C242.659 135.759 244.599 133.215 245.403 130.176L252.639 102.821C253.443 99.7822 253.015 96.6104 251.434 93.8936C249.854 91.1768 247.309 89.2365 244.271 88.4328L198.574 76.3476C197.572 76.0827 196.555 75.9514 195.545 75.9514Z" fill="black"/>
<path d="M225.646 114.661L208.917 119.907C204.876 121.175 201.023 117.491 202.107 113.398L206.887 95.3266C207.969 91.2332 213.138 89.936 216.024 93.0354L227.974 105.861C230.67 108.757 229.423 113.477 225.646 114.661Z" fill="#EC8503"/>
<path d="M189.954 164.829C189.779 164.829 189.603 164.775 189.449 164.664C189.066 164.385 188.982 163.849 189.263 163.466C190.388 161.924 191.104 160.253 191.337 158.632C191.595 156.833 191.265 155.076 190.409 153.688C188.998 151.406 186.37 150.226 183.332 149.024C182.892 148.85 182.675 148.352 182.849 147.912C183.024 147.471 183.524 147.256 183.961 147.43C186.528 148.444 190.044 149.834 191.867 152.787C192.935 154.516 193.35 156.679 193.035 158.877C192.761 160.774 191.937 162.712 190.649 164.478C190.479 164.707 190.219 164.829 189.954 164.829Z" fill="white"/>
<path d="M184.846 187.476C184.438 187.476 184.074 187.181 184.001 186.765C183.92 186.298 184.232 185.855 184.699 185.773C186.91 185.386 188.568 184.589 189.623 183.403C190.653 182.244 191.223 180.231 190.252 178.784C190.1 178.56 189.922 178.356 189.745 178.152C189.503 177.872 189.251 177.582 189.034 177.236C188.226 175.945 188.138 174.166 188.799 172.474C189.356 171.05 190.334 169.85 191.196 168.793C191.495 168.426 192.034 168.37 192.403 168.671C192.77 168.97 192.824 169.511 192.525 169.878C191.703 170.885 190.854 171.926 190.397 173.102C189.931 174.29 189.967 175.495 190.488 176.328C190.635 176.563 190.832 176.792 191.04 177.032C191.255 177.279 191.475 177.534 191.674 177.831C193.141 180.016 192.396 182.862 190.902 184.544C189.584 186.027 187.594 187.009 184.991 187.464C184.945 187.471 184.895 187.476 184.846 187.476Z" fill="white"/>
<path d="M133.038 205.891C132.716 205.891 132.411 205.71 132.264 205.402C131.385 203.559 130.292 201.264 129.975 198.827C129.617 196.097 130.364 193.493 131.974 191.866C134.136 189.676 137.487 189.418 139.821 189.416C141.643 189.409 143.486 189.529 145.266 189.64C147.05 189.751 148.884 189.867 150.699 189.862C154.901 189.846 158.198 189.106 160.772 187.6C161.179 187.363 161.705 187.498 161.945 187.908C162.182 188.318 162.046 188.841 161.637 189.081C158.795 190.743 155.218 191.56 150.706 191.576C148.836 191.583 146.97 191.465 145.157 191.352C143.405 191.241 141.582 191.134 139.821 191.13C137.795 191.132 134.903 191.336 133.192 193.07C131.951 194.324 131.383 196.394 131.673 198.606C131.935 200.614 132.759 202.459 133.81 204.666C134.014 205.094 133.832 205.606 133.405 205.81C133.287 205.864 133.162 205.891 133.038 205.891Z" fill="white"/>
<path d="M111.462 183.158C111.096 183.158 110.756 182.921 110.643 182.552C109.459 178.66 108.259 174.041 108.331 169.282C108.41 164.215 110.009 159.667 112.83 156.475C116.128 152.744 121.261 151.009 125.612 152.157C126.07 152.28 126.344 152.748 126.221 153.206C126.101 153.663 125.633 153.937 125.173 153.815C121.44 152.825 116.993 154.351 114.114 157.609C111.562 160.496 110.115 164.652 110.045 169.309C109.975 173.831 111.136 178.288 112.282 182.051C112.42 182.504 112.164 182.984 111.711 183.122C111.63 183.147 111.544 183.158 111.462 183.158Z" fill="white"/>
</g>
</svg>
