<svg width="32" height="32" viewBox="0 0 32 32" fill="none" xmlns="http://www.w3.org/2000/svg">
<g clip-path="url(#clip0_901_9272)">
<path d="M25.3346 24.3333H31.3346M31.3346 24.3333L28.0013 21M31.3346 24.3333L28.0013 27.6667M18.0013 1.66667L14.668 5.00001L18.0013 8.33334" stroke="black" stroke-width="1.5" stroke-linecap="round" stroke-linejoin="round"/>
<path d="M16.0013 5C18.6535 5 21.197 6.05357 23.0724 7.92893C24.9477 9.8043 26.0013 12.3478 26.0013 15C26.0013 17.6522 24.9477 20.1957 23.0724 22.0711C21.197 23.9464 18.6535 25 16.0013 25H4.66797" stroke="black" stroke-width="1.5" stroke-linecap="round" stroke-linejoin="round"/>
<path d="M11.008 6.33334C9.4851 7.21024 8.22029 8.47313 7.34107 9.99468C6.46184 11.5162 5.99928 13.2427 6 15C6 17.2507 6.744 19.328 8 21" stroke="black" stroke-width="1.5" stroke-linecap="round" stroke-linejoin="round"/>
</g>
<defs>
<clipPath id="clip0_901_9272">
<rect width="32" height="32" fill="white"/>
</clipPath>
</defs>
</svg>
