<svg width="32" height="32" viewBox="0 0 32 32" fill="none" xmlns="http://www.w3.org/2000/svg">
<path d="M14 4H6C5.46957 4 4.96086 4.21071 4.58579 4.58579C4.21071 4.96086 4 5.46957 4 6L4 20.6667C4 21.1971 4.21071 21.7058 4.58579 22.0809C4.96086 22.456 5.46957 22.6667 6 22.6667H26C26.5304 22.6667 27.0391 22.456 27.4142 22.0809C27.7893 21.7058 28 21.1971 28 20.6667V14M16 22.6667V28" stroke="black" stroke-width="1.5" stroke-linecap="round" stroke-linejoin="round"/>
<path d="M21.332 4L18.6654 6.66667L21.332 9.33333M25.332 4L27.9987 6.66667L25.332 9.33333M9.33203 28H22.6654" stroke="black" stroke-width="1.5" stroke-linecap="round" stroke-linejoin="round"/>
</svg>
