<svg width="32" height="32" viewBox="0 0 32 32" fill="none" xmlns="http://www.w3.org/2000/svg">
<path d="M17.9985 5.33333C17.4681 5.33333 16.9594 5.54404 16.5843 5.91911C16.2093 6.29419 15.9985 6.8029 15.9985 7.33333C15.9985 7.86376 16.2093 8.37247 16.5843 8.74754C16.9594 9.12261 17.4681 9.33333 17.9985 9.33333C18.529 9.33333 19.0377 9.12261 19.4128 8.74754C19.7878 8.37247 19.9985 7.86376 19.9985 7.33333C19.9985 6.8029 19.7878 6.29419 19.4128 5.91911C19.0377 5.54404 18.529 5.33333 17.9985 5.33333ZM17.5185 11.6933C15.9319 11.8267 11.5985 15.28 11.5985 15.28C11.3319 15.48 11.4119 15.4667 11.6252 15.84C11.8385 16.2 11.8119 16.2267 12.0652 16.0533C12.3319 15.88 12.7719 15.6 13.5052 15.1467C16.3319 13.3333 13.9585 17.52 12.7452 24.5733C12.2652 28.0667 15.4119 26.2667 16.2252 25.7333C17.0252 25.2133 19.1719 23.7333 19.3852 23.5867C19.6785 23.3867 19.4652 23.2267 19.2385 22.8933C19.0785 22.6667 18.9185 22.8267 18.9185 22.8267C18.0519 23.4 16.4652 24.6 16.2519 23.84C15.9985 23.08 17.6252 17.8667 18.5185 14.28C18.6652 13.4267 19.0652 11.56 17.5185 11.6933Z" fill="black"/>
</svg>
