<svg width="34" height="32" viewBox="0 0 34 32" fill="none" xmlns="http://www.w3.org/2000/svg">
<path d="M20.5156 18.4219C19.599 17.6406 18.5833 17.0417 17.4688 16.625C16.3542 16.2083 15.1979 16 14 16C13.0833 16 12.1979 16.1198 11.3438 16.3594C10.4896 16.599 9.69271 16.9323 8.95312 17.3594C8.21354 17.7865 7.54167 18.3073 6.9375 18.9219C6.33333 19.5365 5.8125 20.2135 5.375 20.9531C4.9375 21.6927 4.59896 22.4896 4.35938 23.3438C4.11979 24.1979 4 25.0833 4 26H2C2 24.75 2.18229 23.5469 2.54687 22.3906C2.91146 21.2344 3.4375 20.1667 4.125 19.1875C4.8125 18.2083 5.625 17.3385 6.5625 16.5781C7.5 15.8177 8.5625 15.2188 9.75 14.7812C8.57292 14.0104 7.65625 13.0417 7 11.875C6.34375 10.7083 6.01042 9.41667 6 8C6 6.89583 6.20833 5.85938 6.625 4.89062C7.04167 3.92188 7.60938 3.07292 8.32812 2.34375C9.04688 1.61458 9.89583 1.04167 10.875 0.625C11.8542 0.208333 12.8958 0 14 0C15.1042 0 16.1406 0.208333 17.1094 0.625C18.0781 1.04167 18.9271 1.60938 19.6562 2.32813C20.3854 3.04688 20.9583 3.89583 21.375 4.875C21.7917 5.85417 22 6.89583 22 8C22 8.6875 21.9167 9.35938 21.75 10.0156C21.5833 10.6719 21.3333 11.2917 21 11.875C20.6667 12.4583 20.276 12.9948 19.8281 13.4844C19.3802 13.974 18.8542 14.4062 18.25 14.7812C18.9271 15.0417 19.5729 15.3594 20.1875 15.7344C20.8021 16.1094 21.3802 16.5312 21.9219 17L20.5156 18.4219ZM8 8C8 8.83333 8.15625 9.60938 8.46875 10.3281C8.78125 11.0469 9.20833 11.6823 9.75 12.2344C10.2917 12.7865 10.9271 13.2188 11.6562 13.5312C12.3854 13.8438 13.1667 14 14 14C14.8229 14 15.599 13.8438 16.3281 13.5312C17.0573 13.2188 17.6927 12.7917 18.2344 12.25C18.776 11.7083 19.2083 11.0729 19.5312 10.3438C19.8542 9.61458 20.0104 8.83333 20 8C20 7.17708 19.8438 6.40104 19.5312 5.67188C19.2188 4.94271 18.7917 4.30729 18.25 3.76563C17.7083 3.22396 17.0677 2.79167 16.3281 2.46875C15.5885 2.14583 14.8125 1.98958 14 2C13.1667 2 12.3906 2.15625 11.6719 2.46875C10.9531 2.78125 10.3177 3.20833 9.76562 3.75C9.21354 4.29167 8.78125 4.93229 8.46875 5.67188C8.15625 6.41146 8 7.1875 8 8ZM29 12C29.6875 12 30.3333 12.1302 30.9375 12.3906C31.5417 12.651 32.0677 13.0104 32.5156 13.4688C32.9635 13.9271 33.3229 14.4583 33.5938 15.0625C33.8646 15.6667 34 16.3125 34 17C34 17.6875 33.8698 18.3333 33.6094 18.9375C33.349 19.5417 32.9896 20.0729 32.5312 20.5312C32.0729 20.9896 31.5417 21.349 30.9375 21.6094C30.3333 21.8698 29.6875 22 29 22C28.7604 22 28.526 21.9844 28.2969 21.9531L19.125 31.125C18.8438 31.4062 18.5208 31.6198 18.1562 31.7656C17.7917 31.9115 17.4062 31.9896 17 32C16.5833 32 16.1927 31.9219 15.8281 31.7656C15.4635 31.6094 15.1458 31.3958 14.875 31.125C14.6042 30.8542 14.3906 30.5365 14.2344 30.1719C14.0781 29.8073 14 29.4167 14 29C14 28.6042 14.0729 28.224 14.2188 27.8594C14.3646 27.4948 14.5833 27.1667 14.875 26.875L24.0469 17.7031C24.0156 17.474 24 17.2396 24 17C24 16.3125 24.1302 15.6667 24.3906 15.0625C24.651 14.4583 25.0052 13.9323 25.4531 13.4844C25.901 13.0365 26.4323 12.6771 27.0469 12.4062C27.6615 12.1354 28.3125 12 29 12ZM29 20C29.4167 20 29.8073 19.9219 30.1719 19.7656C30.5365 19.6094 30.8542 19.3958 31.125 19.125C31.3958 18.8542 31.6094 18.5365 31.7656 18.1719C31.9219 17.8073 32 17.4167 32 17C32 16.5729 31.901 16.1458 31.7031 15.7188L29.4219 18H28V16.5781L30.2812 14.2969C29.8542 14.099 29.4271 14 29 14C28.5833 14 28.1927 14.0781 27.8281 14.2344C27.4635 14.3906 27.1458 14.6042 26.875 14.875C26.6042 15.1458 26.3906 15.4635 26.2344 15.8281C26.0781 16.1927 26 16.5833 26 17C26 17.4271 26.099 17.8542 26.2969 18.2812L16.2969 28.2969C16.099 28.4948 16 28.7292 16 29C16 29.2708 16.099 29.5052 16.2969 29.7031C16.4948 29.901 16.7292 30 17 30C17.2708 30 17.5052 29.901 17.7031 29.7031L27.7188 19.7031C28.1458 19.901 28.5729 20 29 20Z" fill="black"/>
</svg>
