<svg width="32" height="32" viewBox="0 0 32 32" fill="none" xmlns="http://www.w3.org/2000/svg">
<g clip-path="url(#clip0_901_9270)">
<path d="M4.89062 7.09309H27.1128V24.87H4.89062V7.09309Z" fill="white"/>
<path d="M6.66016 11.1055H10.2157V16.0312H6.66016V11.1055Z" fill="white"/>
<path d="M25.081 23.0689H14.1797V11.3333H25.081V17.5431V23.0689Z" fill="white"/>
<path d="M1.0977 6.95031H31.0924M10.5776 28.4854V6.95031M0.4375 3.92139L31.6378 3.92139V28.8804H0.4375L0.4375 3.92139Z" stroke="black" stroke-width="1.24801" stroke-miterlimit="10" stroke-linecap="round" stroke-linejoin="round"/>
<path d="M28.7865 26.3512H13.4809M28.7865 26.3512V18.5929V9.87432M28.7865 26.3512L13.4809 9.87432M13.4809 26.3512V9.87432M13.4809 26.3512L28.7865 9.87432M13.4809 9.87432H28.7865M2.86719 20.6571H6.04837M2.86719 23.1532H8.05143M2.86719 25.6492H6.04837M2.92397 9.55482H7.91602V16.4707H2.92397V9.55482Z" stroke="black" stroke-width="1.24801" stroke-miterlimit="10" stroke-linecap="round" stroke-linejoin="round"/>
</g>
<defs>
<clipPath id="clip0_901_9270">
<rect width="32" height="32" fill="white"/>
</clipPath>
</defs>
</svg>
